<?xml version="1.0" encoding="utf-8"?>
<!-- Generator: Adobe Illustrator 26.0.1, SVG Export Plug-In . SVG Version: 6.00 Build 0)  -->
<svg version="1.1" id="OBJECTS" xmlns="http://www.w3.org/2000/svg" xmlns:xlink="http://www.w3.org/1999/xlink" x="0px" y="0px"
	 viewBox="0 0 366.57 334.25" style="enable-background:new 0 0 366.57 334.25;" xml:space="preserve">
<style type="text/css">
	.st0{fill:#D8D8D8;}
	.st1{fill:#178DB6;}
	.st2{fill:#52ABC8;}
	.st3{fill:#D67F72;}
	.st4{fill:#CD6151;}
	.st5{fill:#E09D93;}
	.st6{fill:#43A3C4;}
	.st7{fill:#69B5D0;}
	.st8{fill:#A8D4E2;}
	.st9{fill:#73BAD1;}
	.st10{fill:#D5EBF1;}
	.st11{enable-background:new    ;}
	.st12{fill:#70C1EF;}
	.st13{fill:#95D1F3;}
	.st14{opacity:0.57;}
	.st15{fill:#808080;}
	.st16{fill:#989898;}
	.st17{fill:#DBDBDB;}
	.st18{fill:#C5C5C5;}
	.st19{fill:#888888;}
	.st20{fill:#C7E7F9;}
	.st21{fill:#ACDBF6;}
	.st22{clip-path:url(#SVGID_00000089532531476571417880000004792665263382783379_);enable-background:new    ;}
	.st23{fill:#537D1C;}
	.st24{fill:#8AC6DA;}
	.st25{fill:#359CBF;}
	.st26{fill:#E09E94;}
	.st27{fill:#D67C6F;}
	.st28{fill:#71B9D2;}
	.st29{fill:#51A9C8;}
	.st30{fill:#A5D3E3;}
	.st31{fill:#40A1C3;}
	.st32{fill:#5CAFCC;}
	.st33{fill:#ECC3BD;}
	.st34{fill:#E3A89F;}
	.st35{fill:#F1D4CF;}
	.st36{fill:#013E48;}
	.st37{fill:#066272;}
	.st38{fill:#F5F5F5;}
	.st39{fill:#E3E3E3;}
	.st40{fill:#FFFAD4;}
	.st41{fill:#EEC18E;}
	.st42{fill:#FEFEFA;}
	.st43{clip-path:url(#SVGID_00000002369051023597072970000009651946459984178312_);enable-background:new    ;}
	.st44{fill:#2F4049;}
	.st45{fill:#31434C;}
	.st46{fill:#33454E;}
	.st47{fill:#354851;}
	.st48{fill:#374A54;}
	.st49{fill:#384D57;}
	.st50{fill:#3A4F5A;}
	.st51{fill:#3C525C;}
	.st52{fill:#3E545F;}
	.st53{fill:#405762;}
	.st54{fill:#425965;}
	.st55{fill:#46606C;}
	.st56{clip-path:url(#SVGID_00000162341622769959386090000005706645808703014037_);enable-background:new    ;}
	.st57{clip-path:url(#SVGID_00000109019849167752250430000016917351548008156043_);enable-background:new    ;}
	.st58{fill:#235461;}
	.st59{fill:#31434B;}
	.st60{clip-path:url(#SVGID_00000096022422413733161720000011299429545152297857_);enable-background:new    ;}
	.st61{clip-path:url(#SVGID_00000073000608432364244730000005259755239690996913_);enable-background:new    ;}
	.st62{fill:#275E6C;}
	.st63{fill:#286170;}
	.st64{fill:#2A6474;}
	.st65{fill:#2B6878;}
	.st66{fill:#2C6B7B;}
	.st67{fill:#2E6E7F;}
	.st68{fill:#2F7183;}
	.st69{fill:#307587;}
	.st70{fill:#347D90;}
	.st71{fill:#245764;}
	.st72{clip-path:url(#SVGID_00000005959743847629679150000017167202856867744439_);enable-background:new    ;}
	.st73{fill:#265B69;}
	.st74{fill:#245765;}
	.st75{fill:#4E6B79;}
	.st76{fill:#183D49;}
	.st77{fill:#19424E;}
	.st78{fill:#112C35;}
	.st79{fill:#770023;}
	.st80{fill:#B10034;}
</style>
<path class="st0" d="M115.77,218.55c0.19-6.89-4.24-13.81-13.32-19.06c-17.41-10.05-45.44-10.22-63.1-0.52l-3.5-2.02l-17.11,9.94
	l-0.01,4.04l10.35,5.97l4.86,2.8l9.94,5.74l4.86,2.8l9.94,5.74l4.86,2.8l9.94,5.74l0,0l0,0l4.86,2.8l10.34,5.97l17.11-9.94
	l0.01-2.78c0.21-0.15,0.43-0.3,0.63-0.45c0.21-0.16,0.4-0.32,0.61-0.48c0.23-0.18,0.46-0.36,0.68-0.54
	c0.19-0.16,0.37-0.33,0.56-0.49c0.21-0.19,0.43-0.37,0.64-0.56c0,0,0,0,0,0c0,0,0.01-0.01,0.01-0.01c0.47-0.43,0.91-0.88,1.33-1.32
	c0.12-0.13,0.24-0.25,0.35-0.38c0.33-0.36,0.64-0.73,0.94-1.1c0.06-0.07,0.13-0.15,0.19-0.22c0.03-0.03,0.05-0.07,0.08-0.1
	c0.29-0.37,0.56-0.75,0.82-1.13c0.03-0.04,0.05-0.07,0.08-0.11c0.28-0.42,0.54-0.84,0.78-1.26c0.02-0.03,0.04-0.06,0.05-0.08
	c0.07-0.12,0.13-0.25,0.19-0.37c0.14-0.26,0.27-0.51,0.4-0.77c0.08-0.17,0.15-0.34,0.23-0.51c0.11-0.24,0.21-0.49,0.31-0.74
	c0.03-0.07,0.06-0.13,0.08-0.2c0.04-0.11,0.07-0.23,0.11-0.34c0.08-0.23,0.16-0.46,0.23-0.68c0.06-0.19,0.11-0.37,0.16-0.56
	c0.06-0.23,0.12-0.46,0.17-0.69c0.02-0.09,0.05-0.19,0.07-0.28c0.02-0.09,0.03-0.18,0.04-0.28c0.04-0.23,0.08-0.47,0.11-0.7
	c0.03-0.18,0.05-0.37,0.07-0.56c0.02-0.24,0.04-0.47,0.05-0.71c0.01-0.12,0.02-0.24,0.03-0.36c0-0.13,0.01-0.26,0.01-0.4l0.01-4.04
	C115.79,218.29,115.78,218.42,115.77,218.55z M105.05,235.07c-0.01,0-0.01,0.01-0.02,0.01c-0.48,0.32-0.97,0.64-1.48,0.96
	C104.07,235.72,104.57,235.4,105.05,235.07z M57.93,209.7c0.07-0.02,0.13-0.05,0.2-0.07c0.31-0.1,0.62-0.2,0.94-0.29
	c0.4-0.12,0.8-0.24,1.21-0.34c0.33-0.09,0.67-0.17,1-0.24c0.41-0.1,0.83-0.19,1.25-0.27c0.44-0.09,0.88-0.17,1.33-0.24
	c0.16-0.03,0.32-0.05,0.49-0.08c0.65-0.09,1.31-0.18,1.97-0.24c0.84-0.08,1.7-0.14,2.55-0.17c0.26-0.01,0.52-0.01,0.78-0.01
	c0.55-0.01,1.1-0.02,1.64-0.01c0.34,0.01,0.67,0.03,1.01,0.04c0.45,0.02,0.91,0.04,1.36,0.07c0.35,0.03,0.69,0.06,1.04,0.1
	c0.44,0.04,0.87,0.09,1.31,0.15c0.34,0.04,0.67,0.1,1,0.15c0.46,0.07,0.92,0.15,1.37,0.24c0.31,0.06,0.63,0.13,0.94,0.2
	c0.53,0.12,1.05,0.25,1.56,0.38c0.34,0.09,0.68,0.18,1.02,0.28c0.19,0.06,0.37,0.11,0.56,0.17c0.5,0.16,1,0.33,1.49,0.52
	c0.12,0.04,0.24,0.09,0.36,0.13c0.44,0.17,0.85,0.36,1.27,0.55c0.21,0.09,0.43,0.18,0.63,0.27c0.61,0.29,1.21,0.6,1.78,0.93
	c4,2.31,6.33,5.22,7.04,8.23c-0.68,2.71-2.68,5.33-6.03,7.49L57.93,209.7z M56.65,206.13c-0.13,0.05-0.25,0.1-0.38,0.15
	c0.61-0.25,1.23-0.48,1.87-0.69C57.63,205.76,57.14,205.94,56.65,206.13z M59.08,205.3c0.4-0.12,0.8-0.24,1.2-0.34
	C59.88,205.06,59.48,205.18,59.08,205.3z M60.83,204.83c0.57-0.14,1.13-0.27,1.71-0.38c-0.42,0.08-0.83,0.17-1.25,0.27
	C61.14,204.75,60.99,204.79,60.83,204.83z M63.88,204.21c0.18-0.03,0.36-0.06,0.54-0.08c-0.02,0-0.04,0-0.05,0.01
	C64.2,204.15,64.04,204.18,63.88,204.21z M66.33,203.89c0.85-0.08,1.7-0.14,2.55-0.17c0,0,0,0,0,0
	C68.03,203.75,67.18,203.81,66.33,203.89C66.33,203.89,66.33,203.89,66.33,203.89z M72.33,203.74c0.45,0.02,0.9,0.04,1.34,0.07
	C73.23,203.78,72.78,203.76,72.33,203.74z M74.72,203.91c0.44,0.04,0.87,0.09,1.3,0.15l0,0C75.6,204,75.16,203.96,74.72,203.91z
	 M77.02,204.21c0.46,0.07,0.93,0.15,1.38,0.24c0,0,0,0,0,0C77.95,204.36,77.49,204.29,77.02,204.21
	C77.03,204.21,77.02,204.21,77.02,204.21z M79.35,204.65c0.53,0.12,1.04,0.24,1.56,0.38c0,0,0,0,0,0
	C80.39,204.89,79.87,204.77,79.35,204.65z M81.92,205.31c0.18,0.06,0.37,0.11,0.55,0.17C82.29,205.43,82.1,205.37,81.92,205.31z
	 M83.97,206.01c0.12,0.04,0.24,0.08,0.35,0.13c0,0,0,0,0,0C84.21,206.09,84.09,206.05,83.97,206.01z M85.63,206.69
	c0.2,0.09,0.41,0.17,0.6,0.26C86.03,206.86,85.83,206.78,85.63,206.69z M95.29,217.9c0-0.24-0.03-0.49-0.06-0.73
	C95.26,217.42,95.29,217.66,95.29,217.9z M92.84,211.86c0.2,0.24,0.4,0.47,0.57,0.71C93.24,212.33,93.04,212.09,92.84,211.86z
	 M93.78,213.15c0.15,0.24,0.3,0.48,0.43,0.72C94.09,213.63,93.93,213.39,93.78,213.15z M94.49,214.47c0.11,0.24,0.22,0.48,0.3,0.72
	C94.71,214.95,94.6,214.71,94.49,214.47z M94.98,215.82c0.07,0.24,0.13,0.48,0.18,0.73C95.11,216.3,95.04,216.06,94.98,215.82z
	 M92.4,211.31c-0.22-0.24-0.48-0.48-0.73-0.72C91.91,210.83,92.17,211.07,92.4,211.31z M89.69,208.96
	c-0.52-0.37-1.08-0.73-1.68-1.08c-0.28-0.16-0.58-0.31-0.88-0.46c0.29,0.15,0.6,0.3,0.88,0.46
	C88.61,208.23,89.17,208.59,89.69,208.96z M91.15,210.11c-0.3-0.26-0.64-0.51-0.97-0.76C90.52,209.6,90.85,209.85,91.15,210.11z
	 M71.31,203.7C71.31,203.7,71.31,203.7,71.31,203.7c-0.55-0.01-1.1,0-1.65,0.01C70.22,203.7,70.76,203.69,71.31,203.7z
	 M55.95,206.41c-0.71,0.3-1.4,0.61-2.06,0.96l0,0C54.55,207.02,55.24,206.71,55.95,206.41z M105.49,234.76
	c0.32-0.23,0.64-0.45,0.95-0.68c-0.01,0.01-0.02,0.01-0.03,0.02C106.12,234.32,105.8,234.54,105.49,234.76z M106.95,233.67
	c0.27-0.21,0.54-0.42,0.79-0.63c-0.01,0.01-0.03,0.02-0.04,0.04C107.46,233.28,107.21,233.48,106.95,233.67z M108.9,232.04
	c-0.19,0.18-0.4,0.35-0.6,0.52c0.22-0.19,0.44-0.38,0.64-0.57c-0.01,0.01-0.02,0.02-0.03,0.03
	C108.91,232.03,108.9,232.03,108.9,232.04z M110.54,230.38c0.03-0.03,0.05-0.06,0.08-0.08c-0.01,0.01-0.01,0.01-0.02,0.02
	C110.58,230.34,110.56,230.36,110.54,230.38z M111.54,229.22c-0.01,0.01-0.01,0.01-0.02,0.02c0.12-0.14,0.24-0.29,0.35-0.44
	c-0.02,0.03-0.04,0.06-0.07,0.09C111.72,229,111.62,229.11,111.54,229.22z M112.62,227.76c-0.05,0.08-0.11,0.15-0.17,0.23
	c0.1-0.15,0.21-0.3,0.31-0.45c-0.02,0.03-0.04,0.07-0.06,0.1C112.68,227.69,112.65,227.72,112.62,227.76z M113.38,226.55
	c0.04-0.07,0.08-0.13,0.12-0.2c-0.01,0.01-0.01,0.02-0.02,0.03C113.45,226.44,113.42,226.5,113.38,226.55z M114.85,223.42
	c0.02-0.05,0.03-0.09,0.05-0.14c-0.01,0.03-0.02,0.07-0.03,0.1C114.86,223.39,114.85,223.4,114.85,223.42z M115.23,222.2
	c0.02-0.06,0.03-0.13,0.05-0.19c-0.01,0.04-0.02,0.08-0.03,0.12C115.24,222.16,115.23,222.18,115.23,222.2z M115.5,221
	c0.02-0.09,0.03-0.19,0.05-0.28c-0.01,0.06-0.02,0.11-0.03,0.17C115.52,220.93,115.51,220.96,115.5,221z M115.69,219.78
	c0.01-0.11,0.02-0.23,0.03-0.34c0,0.06-0.01,0.13-0.01,0.19C115.7,219.68,115.69,219.73,115.69,219.78z"/>
<g>
	<polygon class="st1" points="40.83,209.72 40.82,213.76 35.97,210.95 35.98,206.91 	"/>
</g>
<g>
	<polygon class="st1" points="29.08,210.92 29.07,214.96 18.72,208.98 18.74,204.94 	"/>
</g>
<g>
	<polygon class="st1" points="35.98,206.91 35.97,210.95 29.07,214.96 29.08,210.92 	"/>
</g>
<g>
	<polygon class="st1" points="33.94,213.72 33.93,217.76 29.07,214.96 29.08,210.92 	"/>
</g>
<g>
	<polygon class="st1" points="40.83,209.72 40.82,213.76 33.93,217.76 33.94,213.72 	"/>
</g>
<g>
	<polygon class="st1" points="40.83,209.72 33.94,213.72 29.08,210.92 35.98,206.91 	"/>
</g>
<path class="st1" d="M88.01,205.93c-0.57-0.33-1.17-0.64-1.78-0.93c-0.21-0.1-0.42-0.18-0.64-0.28c-0.38-0.17-0.75-0.34-1.15-0.5
	c-0.04-0.02-0.08-0.03-0.12-0.04c-0.12-0.05-0.24-0.09-0.36-0.13c-0.49-0.18-0.98-0.36-1.49-0.52c-0.18-0.06-0.37-0.12-0.56-0.17
	c-0.16-0.05-0.31-0.1-0.47-0.15c-0.18-0.05-0.37-0.09-0.54-0.13c-0.52-0.14-1.04-0.27-1.56-0.38c-0.16-0.04-0.32-0.09-0.49-0.12
	c-0.15-0.03-0.3-0.05-0.45-0.08c-0.46-0.09-0.91-0.17-1.37-0.24c-0.21-0.03-0.42-0.08-0.64-0.11c-0.12-0.02-0.24-0.02-0.36-0.04
	c-0.43-0.06-0.87-0.1-1.31-0.15c-0.25-0.02-0.49-0.06-0.74-0.08c-0.1-0.01-0.2-0.01-0.3-0.02c-0.45-0.03-0.91-0.05-1.36-0.07
	c-0.26-0.01-0.52-0.04-0.79-0.04c-0.07,0-0.15,0-0.22,0c-0.55-0.01-1.1,0-1.65,0.01c-0.23,0-0.45,0-0.68,0
	c-0.03,0-0.07,0.01-0.1,0.01c-0.85,0.03-1.7,0.09-2.55,0.17c-0.04,0-0.07,0-0.11,0.01c-0.62,0.06-1.24,0.14-1.86,0.23
	c-0.16,0.02-0.32,0.05-0.49,0.08c-0.28,0.04-0.57,0.09-0.85,0.14c-0.16,0.03-0.32,0.07-0.48,0.1c-0.42,0.08-0.84,0.17-1.25,0.27
	c-0.34,0.08-0.67,0.16-1,0.24c-0.41,0.11-0.81,0.22-1.21,0.34c-0.21,0.06-0.43,0.11-0.64,0.18c-0.1,0.03-0.2,0.07-0.3,0.11
	c-0.51,0.17-1,0.35-1.49,0.54c-0.24,0.09-0.48,0.18-0.71,0.27c-0.71,0.3-1.4,0.61-2.06,0.96l-0.01,4.04
	c0.66-0.35,1.35-0.66,2.06-0.96c0.23-0.1,0.47-0.18,0.71-0.27c0.49-0.19,0.98-0.38,1.49-0.54c0.31-0.1,0.62-0.2,0.94-0.29
	c0.4-0.12,0.8-0.24,1.21-0.34c0.33-0.09,0.67-0.16,1-0.24c0.41-0.1,0.83-0.19,1.25-0.27c0.44-0.09,0.88-0.17,1.33-0.24
	c0.16-0.03,0.32-0.05,0.49-0.08c0.65-0.09,1.31-0.18,1.97-0.24c0.85-0.08,1.7-0.14,2.55-0.17c0.26-0.01,0.52-0.01,0.78-0.01
	c0.55-0.01,1.1-0.02,1.64-0.01c0.34,0.01,0.67,0.03,1.01,0.04c0.45,0.02,0.91,0.04,1.36,0.07c0.35,0.03,0.69,0.06,1.04,0.1
	c0.44,0.04,0.87,0.09,1.31,0.15c0.34,0.04,0.67,0.1,1,0.15c0.46,0.07,0.92,0.15,1.37,0.24c0.31,0.06,0.63,0.13,0.94,0.2
	c0.53,0.12,1.05,0.25,1.56,0.38c0.34,0.09,0.68,0.18,1.02,0.28c0.19,0.06,0.37,0.11,0.56,0.17c0.5,0.16,1,0.33,1.49,0.52
	c0.12,0.05,0.24,0.09,0.36,0.13c0.44,0.17,0.85,0.36,1.27,0.55c0.21,0.09,0.43,0.18,0.63,0.27c0.61,0.29,1.21,0.6,1.78,0.93
	c4.88,2.82,7.31,6.52,7.3,10.22l0.01-4.04C95.32,212.45,92.89,208.75,88.01,205.93z"/>
<g>
	<polygon class="st1" points="55.63,218.26 55.62,222.3 50.76,219.49 50.77,215.45 	"/>
</g>
<g>
	<polygon class="st1" points="43.88,219.46 43.87,223.5 33.93,217.76 33.94,213.72 	"/>
</g>
<g>
	<polygon class="st1" points="50.77,215.45 50.76,219.49 43.87,223.5 43.88,219.46 	"/>
</g>
<g>
	<polygon class="st1" points="48.73,222.27 48.72,226.3 43.87,223.5 43.88,219.46 	"/>
</g>
<g>
	<polygon class="st1" points="55.63,218.26 48.73,222.27 43.88,219.46 50.77,215.45 	"/>
</g>
<g>
	<polygon class="st1" points="55.63,218.26 55.62,222.3 48.72,226.3 48.73,222.27 	"/>
</g>
<g>
	<polygon class="st1" points="70.42,226.8 70.41,230.84 65.55,228.03 65.57,224 	"/>
</g>
<g>
	<polygon class="st1" points="65.57,224 65.55,228.03 58.66,232.04 58.67,228 	"/>
</g>
<g>
	<polygon class="st1" points="58.67,228 58.66,232.04 48.72,226.3 48.73,222.27 	"/>
</g>
<g>
	<polygon class="st1" points="70.42,226.8 70.41,230.84 63.52,234.84 63.53,230.81 	"/>
</g>
<g>
	<polygon class="st1" points="63.53,230.81 63.52,234.84 58.66,232.04 58.67,228 	"/>
</g>
<g>
	<polygon class="st1" points="70.42,226.8 63.53,230.81 58.67,228 65.57,224 	"/>
</g>
<path class="st1" d="M115.75,216.96c-0.01,0.24-0.03,0.48-0.05,0.72c-0.02,0.18-0.04,0.37-0.07,0.55c-0.03,0.24-0.07,0.47-0.11,0.71
	c-0.03,0.19-0.07,0.37-0.11,0.56c-0.05,0.23-0.11,0.46-0.17,0.69c-0.05,0.19-0.1,0.37-0.16,0.56c-0.07,0.23-0.15,0.46-0.23,0.69
	c-0.06,0.18-0.13,0.36-0.2,0.54c-0.1,0.25-0.2,0.49-0.31,0.74c-0.07,0.17-0.15,0.34-0.23,0.51c-0.12,0.26-0.26,0.52-0.4,0.77
	c-0.08,0.15-0.16,0.3-0.24,0.45c-0.24,0.42-0.5,0.85-0.78,1.26c-0.03,0.04-0.06,0.07-0.08,0.11c-0.26,0.38-0.53,0.76-0.82,1.13
	c-0.08,0.11-0.18,0.22-0.26,0.32c-0.3,0.37-0.61,0.74-0.94,1.1c-0.12,0.13-0.23,0.26-0.35,0.38c-0.42,0.45-0.86,0.89-1.33,1.32
	c-0.01,0.01-0.01,0.01-0.02,0.02c-0.25,0.23-0.52,0.46-0.78,0.69c-0.14,0.12-0.27,0.24-0.41,0.36c-0.3,0.25-0.62,0.5-0.94,0.74
	c-0.12,0.09-0.23,0.18-0.35,0.27c-0.41,0.31-0.84,0.61-1.28,0.91c-0.04,0.02-0.07,0.05-0.11,0.08c-0.48,0.32-0.97,0.64-1.48,0.96
	l-0.01,4.04c0.51-0.31,1-0.63,1.48-0.96c0.05-0.03,0.09-0.06,0.14-0.1c0.43-0.29,0.85-0.59,1.25-0.89c0.21-0.16,0.4-0.32,0.61-0.48
	c0.23-0.18,0.46-0.36,0.68-0.54c0.19-0.16,0.37-0.33,0.56-0.49c0.21-0.19,0.43-0.37,0.64-0.56c0,0,0,0,0,0c0,0,0.01-0.01,0.01-0.01
	c0.47-0.43,0.91-0.88,1.33-1.32c0.12-0.13,0.24-0.25,0.35-0.38c0.33-0.36,0.64-0.73,0.94-1.1c0.06-0.07,0.13-0.15,0.19-0.22
	c0.03-0.03,0.05-0.07,0.08-0.1c0.29-0.37,0.56-0.75,0.82-1.13c0.03-0.04,0.06-0.07,0.08-0.11c0.28-0.42,0.54-0.84,0.78-1.26
	c0.02-0.03,0.04-0.06,0.05-0.08c0.07-0.12,0.13-0.25,0.19-0.37c0.14-0.26,0.27-0.51,0.4-0.77c0.08-0.17,0.15-0.34,0.23-0.51
	c0.11-0.24,0.21-0.49,0.31-0.74c0.03-0.07,0.06-0.13,0.08-0.2c0.04-0.11,0.07-0.23,0.11-0.34c0.08-0.23,0.16-0.46,0.23-0.68
	c0.06-0.19,0.11-0.37,0.16-0.56c0.06-0.23,0.12-0.46,0.17-0.69c0.02-0.09,0.05-0.19,0.07-0.28c0.02-0.09,0.03-0.18,0.04-0.28
	c0.04-0.23,0.08-0.47,0.11-0.7c0.03-0.18,0.05-0.37,0.07-0.56c0.02-0.24,0.04-0.47,0.05-0.71c0.01-0.12,0.02-0.24,0.03-0.36
	c0-0.13,0.01-0.26,0.01-0.4l0.01-4.04C115.79,216.46,115.77,216.71,115.75,216.96z"/>
<g>
	<polygon class="st1" points="85.22,235.34 85.21,239.38 80.35,236.58 80.36,232.54 	"/>
</g>
<g>
	<polygon class="st1" points="80.36,232.54 80.35,236.58 73.45,240.58 73.47,236.54 	"/>
</g>
<g>
	<polygon class="st1" points="73.47,236.54 73.45,240.58 63.52,234.84 63.53,230.81 	"/>
</g>
<g>
	<polygon class="st1" points="78.32,239.35 78.31,243.39 73.45,240.58 73.47,236.54 	"/>
</g>
<g>
	<polygon class="st1" points="85.22,235.34 78.32,239.35 73.47,236.54 80.36,232.54 	"/>
</g>
<g>
	<polygon class="st1" points="85.22,235.34 85.21,239.38 78.31,243.39 78.32,239.35 	"/>
</g>
<g>
	<path class="st2" d="M103.55,234.09l2.23,1.29l-17.11,9.94l-10.34-5.97l6.89-4.01l-4.86-2.8l-6.89,4.01l-9.94-5.74l6.89-4.01
		l-4.86-2.8L58.67,228l-9.94-5.74l6.89-4.01l-4.86-2.8l-6.89,4.01l-9.94-5.74l6.89-4.01l-4.86-2.8l-6.89,4.01l-10.35-5.97L35.85,195
		l3.5,2.02c17.66-9.7,45.69-9.53,63.1,0.52C119.85,207.59,120.23,223.82,103.55,234.09z M53.89,205.42l35.12,20.28
		c8.73-5.63,8.39-14.34-1-19.76C78.62,200.51,63.57,200.34,53.89,205.42"/>
</g>
<g>
	<polygon class="st1" points="88.67,245.32 88.65,249.36 78.31,243.39 78.32,239.35 	"/>
</g>
<g>
	<polygon class="st1" points="105.78,235.37 105.76,239.41 88.65,249.36 88.67,245.32 	"/>
</g>
<polygon class="st0" points="106.94,144.46 106.76,81.79 92.34,73.41 75.13,83.35 75.14,84.67 69.07,81.14 51.86,91.08 51.96,125 
	45.89,121.47 28.68,131.41 28.8,172.87 43.22,181.25 60.43,171.32 60.41,164.3 66.48,167.83 83.68,157.89 83.66,150.87 89.73,154.4 
	"/>
<g>
	<polygon class="st3" points="106.76,79.84 106.94,142.51 89.73,152.45 89.56,89.78 	"/>
</g>
<g>
	<polygon class="st4" points="89.73,152.45 75.31,144.07 75.13,81.39 89.56,89.78 	"/>
</g>
<g>
	<polygon class="st5" points="89.56,89.78 75.13,81.39 92.34,71.46 106.76,79.84 	"/>
</g>
<g>
	<polygon class="st6" points="83.49,87.57 83.68,155.94 66.48,165.87 66.28,97.5 	"/>
</g>
<g>
	<polygon class="st1" points="66.48,165.87 52.05,157.49 51.86,89.12 66.28,97.5 	"/>
</g>
<g>
	<polygon class="st7" points="66.28,97.5 51.86,89.12 69.07,79.19 83.49,87.57 	"/>
</g>
<g>
	<polygon class="st8" points="60.31,127.9 60.43,169.37 43.22,179.3 43.1,137.83 	"/>
</g>
<g>
	<polygon class="st9" points="43.22,179.3 28.8,170.92 28.68,129.45 43.1,137.83 	"/>
</g>
<g>
	<polygon class="st10" points="43.1,137.83 28.68,129.45 45.89,119.52 60.31,127.9 	"/>
</g>
<g class="st11">
	<g>
		<polygon class="st12" points="334.28,221.5 333.23,222.11 331.38,221.03 332.42,220.43 		"/>
	</g>
	<g>
		<polygon class="st12" points="326.1,227.75 325.06,228.36 321.9,226.54 322.95,225.93 		"/>
	</g>
	<g>
		<polygon class="st12" points="321.6,228.86 320.55,229.47 318.7,228.4 319.74,227.79 		"/>
	</g>
	<g>
		<polygon class="st12" points="315.26,232.55 314.21,233.16 312.36,232.09 313.4,231.48 		"/>
	</g>
	<g>
		<polygon class="st12" points="308.92,236.23 307.87,236.84 306.02,235.77 307.07,235.16 		"/>
	</g>
	<g>
		<polygon class="st12" points="307.08,238.8 306.04,239.41 302.89,237.59 303.93,236.98 		"/>
	</g>
	<g>
		<polygon class="st12" points="300.74,242.49 299.7,243.09 296.55,241.27 297.59,240.67 		"/>
	</g>
	<g>
		<polygon class="st12" points="296.24,243.6 295.2,244.21 293.34,243.14 294.39,242.53 		"/>
	</g>
	<g>
		<polygon class="st12" points="289.9,247.29 288.86,247.89 287,246.82 288.04,246.22 		"/>
	</g>
	<g>
		<polygon class="st12" points="283.56,250.97 282.52,251.58 280.66,250.51 281.7,249.9 		"/>
	</g>
	<g>
		<polygon class="st12" points="281.72,253.54 280.68,254.14 277.53,252.33 278.57,251.72 		"/>
	</g>
	<g>
		<polygon class="st12" points="270.88,258.34 269.84,258.94 267.98,257.87 269.03,257.27 		"/>
	</g>
	<g>
		<polygon class="st12" points="251.86,269.39 250.82,270 248.97,268.92 250.01,268.32 		"/>
	</g>
	<g>
		<polygon class="st12" points="245.53,273.07 244.48,273.68 242.63,272.61 243.67,272 		"/>
	</g>
	<g>
		<polygon class="st12" points="311.96,249.36 311.95,252.4 262.4,281.2 262.4,278.16 		"/>
	</g>
	<g>
		<path class="st12" d="M343.7,213.85l-40.56,102.1l-67.78-39.14L343.7,213.85z M311.96,249.36l-49.56,28.8l31.01,17.9
			L311.96,249.36 M242.64,276.25l1.05-0.61l-3.15-1.82l-1.05,0.61L242.64,276.25 M261.66,265.2l1.05-0.61l-3.15-1.82l-1.05,0.61
			L261.66,265.2 M268,261.52l1.05-0.61l-3.15-1.82l-1.05,0.61L268,261.52 M255.32,268.88l1.05-0.61l-3.15-1.82l-1.05,0.61
			L255.32,268.88 M248.98,272.57l1.05-0.61l-3.15-1.82l-1.05,0.61L248.98,272.57 M274.34,257.83l1.05-0.61l-3.15-1.82l-1.05,0.61
			L274.34,257.83 M331.4,224.67l1.04-0.61l-3.15-1.82l-1.04,0.61L331.4,224.67 M287.02,250.46l1.04-0.61l-3.15-1.82l-1.04,0.61
			L287.02,250.46 M299.7,243.09l1.04-0.61l-3.15-1.82l-1.04,0.61L299.7,243.09 M318.72,232.04l1.04-0.61l-3.15-1.82l-1.04,0.61
			L318.72,232.04 M306.04,239.41l1.04-0.61l-3.15-1.82l-1.04,0.61L306.04,239.41 M312.38,235.73l1.04-0.61l-3.15-1.82l-1.04,0.61
			L312.38,235.73 M325.06,228.36l1.04-0.61l-3.15-1.82l-1.04,0.61L325.06,228.36 M337.73,220.99l1.04-0.61l-3.15-1.82l-1.04,0.61
			L337.73,220.99 M293.36,246.78l1.04-0.61l-3.15-1.82l-1.04,0.61L293.36,246.78 M280.68,254.14l1.04-0.61l-3.15-1.82l-1.04,0.61
			L280.68,254.14 M294.39,242.53l-1.05,0.61l1.86,1.07l1.05-0.61L294.39,242.53 M313.4,231.48l-1.05,0.61l1.86,1.07l1.05-0.61
			L313.4,231.48 M300.73,238.84l-1.05,0.61l1.86,1.07l1.05-0.61L300.73,238.84 M307.07,235.16l-1.05,0.61l1.86,1.07l1.05-0.61
			L307.07,235.16 M319.74,227.79l-1.05,0.61l1.86,1.07l1.05-0.61L319.74,227.79 M332.42,220.43l-1.05,0.61l1.86,1.07l1.05-0.61
			L332.42,220.43 M326.08,224.11l-1.05,0.61l1.86,1.07l1.05-0.61L326.08,224.11 M269.03,257.27l-1.04,0.61l1.86,1.07l1.04-0.61
			L269.03,257.27 M250.01,268.32l-1.04,0.61l1.86,1.07l1.04-0.61L250.01,268.32 M281.7,249.9l-1.04,0.61l1.86,1.07l1.04-0.61
			L281.7,249.9 M238.14,277.36l1.04-0.61l-1.86-1.07l-1.04,0.61L238.14,277.36 M243.67,272l-1.04,0.61l1.86,1.07l1.04-0.61
			L243.67,272 M288.04,246.22l-1.04,0.61l1.86,1.07l1.04-0.61L288.04,246.22 M256.35,264.64l-1.04,0.61l1.86,1.07l1.04-0.61
			L256.35,264.64 M275.36,253.58l-1.04,0.61l1.86,1.07l1.04-0.61L275.36,253.58 M262.69,260.95l-1.04,0.61l1.86,1.07l1.04-0.61
			L262.69,260.95"/>
	</g>
	<g>
		<polygon class="st12" points="338.78,220.38 337.73,220.99 334.58,219.17 335.62,218.56 		"/>
	</g>
	<g>
		<polygon class="st12" points="332.44,224.07 331.4,224.67 328.24,222.85 329.29,222.25 		"/>
	</g>
	<g>
		<polygon class="st12" points="327.94,225.18 326.89,225.79 325.04,224.72 326.08,224.11 		"/>
	</g>
	<g>
		<polygon class="st12" points="319.76,231.44 318.72,232.04 315.56,230.22 316.61,229.62 		"/>
	</g>
	<g>
		<polygon class="st12" points="313.42,235.12 312.38,235.73 309.23,233.91 310.27,233.3 		"/>
	</g>
	<g>
		<polygon class="st12" points="302.58,239.92 301.54,240.52 299.68,239.45 300.73,238.84 		"/>
	</g>
	<g>
		<polygon class="st12" points="294.4,246.17 293.36,246.78 290.21,244.96 291.25,244.35 		"/>
	</g>
	<g>
		<polygon class="st12" points="288.06,249.86 287.02,250.46 283.87,248.64 284.91,248.04 		"/>
	</g>
	<g>
		<polygon class="st12" points="277.22,254.65 276.18,255.26 274.32,254.19 275.36,253.58 		"/>
	</g>
	<g>
		<polygon class="st12" points="275.39,257.22 274.34,257.83 271.19,256.01 272.23,255.4 		"/>
	</g>
	<g>
		<polygon class="st12" points="269.05,260.91 268,261.52 264.85,259.7 265.89,259.09 		"/>
	</g>
	<g>
		<polygon class="st12" points="264.54,262.02 263.5,262.63 261.64,261.56 262.69,260.95 		"/>
	</g>
	<g>
		<polygon class="st12" points="262.71,264.59 261.66,265.2 258.51,263.38 259.55,262.77 		"/>
	</g>
	<g>
		<polygon class="st12" points="258.2,265.71 257.16,266.31 255.31,265.24 256.35,264.64 		"/>
	</g>
	<g>
		<polygon class="st12" points="256.37,268.27 255.32,268.88 252.17,267.06 253.22,266.45 		"/>
	</g>
	<g>
		<polygon class="st12" points="250.03,271.96 248.98,272.57 245.83,270.75 246.88,270.14 		"/>
	</g>
	<g>
		<polygon class="st12" points="243.69,275.64 242.64,276.25 239.49,274.43 240.54,273.82 		"/>
	</g>
	<g>
		<polygon class="st12" points="239.19,276.76 238.14,277.36 236.29,276.29 237.33,275.69 		"/>
	</g>
	<g>
		<polygon class="st12" points="303.14,315.95 303.13,318.98 235.34,279.84 235.35,276.81 		"/>
	</g>
	<g>
		<polygon class="st12" points="343.7,213.85 343.69,216.88 303.13,318.98 303.14,315.95 		"/>
	</g>
</g>
<g>
	<polygon class="st12" points="334.28,219.54 333.23,220.15 331.38,219.08 332.42,218.47 	"/>
</g>
<g>
	<polygon class="st12" points="326.1,225.8 325.06,226.4 321.9,224.59 322.95,223.98 	"/>
</g>
<g>
	<polygon class="st12" points="321.6,226.91 320.55,227.52 318.7,226.45 319.74,225.84 	"/>
</g>
<g>
	<polygon class="st12" points="315.26,230.6 314.21,231.2 312.36,230.13 313.4,229.52 	"/>
</g>
<g>
	<polygon class="st12" points="308.92,234.28 307.87,234.89 306.02,233.82 307.07,233.21 	"/>
</g>
<g>
	<polygon class="st12" points="307.08,236.85 306.04,237.46 302.89,235.64 303.93,235.03 	"/>
</g>
<g>
	<polygon class="st12" points="300.74,240.53 299.7,241.14 296.55,239.32 297.59,238.72 	"/>
</g>
<g>
	<polygon class="st12" points="296.24,241.65 295.2,242.26 293.34,241.18 294.39,240.58 	"/>
</g>
<g>
	<polygon class="st12" points="289.9,245.33 288.86,245.94 287,244.87 288.04,244.26 	"/>
</g>
<g>
	<polygon class="st12" points="283.56,249.02 282.52,249.62 280.66,248.55 281.7,247.95 	"/>
</g>
<g>
	<polygon class="st12" points="281.72,251.59 280.68,252.19 277.53,250.37 278.57,249.77 	"/>
</g>
<g>
	<polygon class="st12" points="270.88,256.39 269.84,256.99 267.98,255.92 269.03,255.31 	"/>
</g>
<g>
	<polygon class="st12" points="251.86,267.44 250.82,268.04 248.97,266.97 250.01,266.37 	"/>
</g>
<g>
	<polygon class="st12" points="245.53,271.12 244.48,271.73 242.63,270.66 243.67,270.05 	"/>
</g>
<g>
	<polygon class="st12" points="311.96,247.41 311.95,250.44 262.4,279.24 262.4,276.21 	"/>
</g>
<g>
	<path class="st13" d="M343.7,211.9L303.14,314l-67.78-39.14L343.7,211.9z M311.96,247.41l-49.56,28.8l31.01,17.9L311.96,247.41
		 M242.64,274.3l1.05-0.61l-3.15-1.82l-1.05,0.61L242.64,274.3 M261.66,263.25l1.05-0.61l-3.15-1.82l-1.05,0.61L261.66,263.25
		 M268,259.56l1.05-0.61l-3.15-1.82l-1.05,0.61L268,259.56 M255.32,266.93l1.05-0.61l-3.15-1.82l-1.05,0.61L255.32,266.93
		 M248.98,270.61l1.05-0.61l-3.15-1.82l-1.05,0.61L248.98,270.61 M274.34,255.88l1.05-0.61l-3.15-1.82l-1.05,0.61L274.34,255.88
		 M331.4,222.72l1.04-0.61l-3.15-1.82l-1.04,0.61L331.4,222.72 M287.02,248.51l1.04-0.61l-3.15-1.82l-1.04,0.61L287.02,248.51
		 M299.7,241.14l1.04-0.61l-3.15-1.82l-1.04,0.61L299.7,241.14 M318.72,230.09l1.04-0.61l-3.15-1.82l-1.04,0.61L318.72,230.09
		 M306.04,237.46l1.04-0.61l-3.15-1.82l-1.04,0.61L306.04,237.46 M312.38,233.77l1.04-0.61l-3.15-1.82l-1.04,0.61L312.38,233.77
		 M325.06,226.4l1.04-0.61l-3.15-1.82l-1.04,0.61L325.06,226.4 M337.73,219.04l1.04-0.61l-3.15-1.82l-1.04,0.61L337.73,219.04
		 M293.36,244.82l1.04-0.61l-3.15-1.82l-1.04,0.61L293.36,244.82 M280.68,252.19l1.04-0.61l-3.15-1.82l-1.04,0.61L280.68,252.19
		 M294.39,240.58l-1.05,0.61l1.86,1.07l1.05-0.61L294.39,240.58 M313.4,229.52l-1.05,0.61l1.86,1.07l1.05-0.61L313.4,229.52
		 M300.73,236.89l-1.05,0.61l1.86,1.07l1.05-0.61L300.73,236.89 M307.07,233.21l-1.05,0.61l1.86,1.07l1.05-0.61L307.07,233.21
		 M319.74,225.84l-1.05,0.61l1.86,1.07l1.05-0.61L319.74,225.84 M332.42,218.47l-1.05,0.61l1.86,1.07l1.05-0.61L332.42,218.47
		 M326.08,222.16l-1.05,0.61l1.86,1.07l1.05-0.61L326.08,222.16 M269.03,255.31l-1.04,0.61l1.86,1.07l1.04-0.61L269.03,255.31
		 M250.01,266.37l-1.04,0.61l1.86,1.07l1.04-0.61L250.01,266.37 M281.7,247.95l-1.04,0.61l1.86,1.07l1.04-0.61L281.7,247.95
		 M238.14,275.41l1.04-0.61l-1.86-1.07l-1.04,0.61L238.14,275.41 M243.67,270.05l-1.04,0.61l1.86,1.07l1.04-0.61L243.67,270.05
		 M288.04,244.26l-1.04,0.61l1.86,1.07l1.04-0.61L288.04,244.26 M256.35,262.68l-1.04,0.61l1.86,1.07l1.04-0.61L256.35,262.68
		 M275.36,251.63l-1.04,0.61l1.86,1.07l1.04-0.61L275.36,251.63 M262.69,259l-1.04,0.61l1.86,1.07l1.04-0.61L262.69,259"/>
</g>
<g>
	<polygon class="st12" points="338.78,218.43 337.73,219.04 334.58,217.22 335.62,216.61 	"/>
</g>
<g>
	<polygon class="st12" points="332.44,222.12 331.4,222.72 328.24,220.9 329.29,220.3 	"/>
</g>
<g>
	<polygon class="st12" points="327.94,223.23 326.89,223.84 325.04,222.77 326.08,222.16 	"/>
</g>
<g>
	<polygon class="st12" points="319.76,229.48 318.72,230.09 315.56,228.27 316.61,227.66 	"/>
</g>
<g>
	<polygon class="st12" points="313.42,233.17 312.38,233.77 309.23,231.95 310.27,231.35 	"/>
</g>
<g>
	<polygon class="st12" points="302.58,237.96 301.54,238.57 299.68,237.5 300.73,236.89 	"/>
</g>
<g>
	<polygon class="st12" points="294.4,244.22 293.36,244.82 290.21,243 291.25,242.4 	"/>
</g>
<g>
	<polygon class="st12" points="288.06,247.9 287.02,248.51 283.87,246.69 284.91,246.08 	"/>
</g>
<g>
	<polygon class="st12" points="277.22,252.7 276.18,253.31 274.32,252.24 275.36,251.63 	"/>
</g>
<g>
	<polygon class="st12" points="275.39,255.27 274.34,255.88 271.19,254.06 272.23,253.45 	"/>
</g>
<g>
	<polygon class="st12" points="269.05,258.95 268,259.56 264.85,257.74 265.89,257.13 	"/>
</g>
<g>
	<polygon class="st12" points="264.54,260.07 263.5,260.68 261.64,259.6 262.69,259 	"/>
</g>
<g>
	<polygon class="st12" points="262.71,262.64 261.66,263.25 258.51,261.43 259.55,260.82 	"/>
</g>
<g>
	<polygon class="st12" points="258.2,263.75 257.16,264.36 255.31,263.29 256.35,262.68 	"/>
</g>
<g>
	<polygon class="st12" points="256.37,266.32 255.32,266.93 252.17,265.11 253.22,264.5 	"/>
</g>
<g>
	<polygon class="st12" points="250.03,270.01 248.98,270.61 245.83,268.79 246.88,268.19 	"/>
</g>
<g>
	<polygon class="st12" points="243.69,273.69 242.64,274.3 239.49,272.48 240.54,271.87 	"/>
</g>
<g>
	<polygon class="st12" points="239.19,274.81 238.14,275.41 236.29,274.34 237.33,273.73 	"/>
</g>
<g>
	<polygon class="st12" points="303.14,314 303.13,317.03 235.34,277.89 235.35,274.86 	"/>
</g>
<g>
	<polygon class="st12" points="343.7,211.9 343.69,214.93 303.13,317.03 303.14,314 	"/>
</g>
<g>
	<g class="st14">
		<polygon class="st0" points="136.35,123.91 124.61,117.09 154.57,99.79 166.32,106.61 		"/>
	</g>
	<g>
		<g class="st11">
			<g>
				<polygon class="st15" points="144.95,115.71 137.74,111.51 128.17,85.6 135.38,89.79 				"/>
			</g>
			<g>
				<polygon class="st16" points="149.08,95.14 141.87,90.95 151.56,40.4 158.77,44.6 				"/>
			</g>
			<g>
				<polygon class="st17" points="158.77,44.6 151.56,40.4 194.9,15.38 202.11,19.57 				"/>
			</g>
			<g>
				<polygon class="st18" points="202.11,19.57 202.14,30.34 165.91,51.25 154.77,110.04 144.95,115.71 135.38,89.79 123.42,96.7 
					123.39,87.23 141.79,76.61 149.08,95.14 158.77,44.6 				"/>
			</g>
			<g>
				<polygon class="st19" points="123.42,96.7 116.21,92.51 116.18,83.04 123.39,87.23 				"/>
			</g>
			<g>
				<polygon class="st17" points="123.39,87.23 116.18,83.04 134.58,72.42 141.79,76.61 				"/>
			</g>
		</g>
	</g>
</g>
<g>
	<polygon class="st0" points="210.92,108.65 216.87,105.19 243.44,120.45 237.49,123.9 	"/>
</g>
<g>
	<polygon class="st0" points="240.17,125.12 247.49,120.87 278.82,138.82 271.49,143.08 	"/>
</g>
<g>
	<polygon class="st0" points="272.82,144.06 280.15,139.8 306.1,154.64 298.77,158.9 	"/>
</g>
<g>
	<polygon class="st0" points="305.55,163.03 312.88,158.77 324.21,165.21 316.88,169.46 	"/>
</g>
<g>
	<polygon class="st0" points="322.12,172.44 329.44,168.19 340.77,174.63 333.44,178.88 	"/>
</g>
<g>
	<polygon class="st0" points="338.55,181.99 345.88,177.74 357.2,184.17 349.88,188.43 	"/>
</g>
<g>
	<polygon class="st20" points="211.07,99.47 217.02,96.01 226.49,101.47 220.54,104.93 	"/>
</g>
<g>
	<polygon class="st20" points="228.6,109.59 234.55,106.13 243.19,111.12 237.24,114.58 	"/>
</g>
<g>
	<polygon class="st12" points="237.24,114.58 243.19,111.12 243.17,118.69 237.22,122.14 	"/>
</g>
<path class="st20" d="M228.84,64.99c-0.16,0-0.33-0.01-0.5-0.01c-0.42-0.01-0.85-0.02-1.29-0.04c-0.23-0.02-0.47-0.04-0.71-0.06
	c-0.39-0.04-0.78-0.07-1.19-0.12c-0.52-0.07-1.04-0.14-1.59-0.23c-0.46-0.08-0.89-0.17-1.33-0.26c-0.3-0.06-0.6-0.13-0.89-0.2
	c-0.34-0.08-0.67-0.16-0.99-0.25c-0.17-0.05-0.34-0.09-0.5-0.14c-0.47-0.14-0.92-0.28-1.34-0.43c-0.05-0.02-0.1-0.04-0.15-0.06
	c-0.45-0.17-0.89-0.34-1.3-0.52l-5.95,3.46c0.01,0,0.02,0.01,0.03,0.01c0.22,0.1,0.45,0.2,0.68,0.29c0.19,0.08,0.39,0.15,0.59,0.22
	c0.05,0.02,0.1,0.04,0.15,0.06c0.03,0.01,0.06,0.02,0.09,0.03c0.33,0.12,0.68,0.23,1.03,0.34c0.07,0.02,0.15,0.04,0.22,0.06
	c0.16,0.05,0.33,0.09,0.5,0.14c0.2,0.06,0.4,0.11,0.61,0.17c0.12,0.03,0.26,0.06,0.39,0.09c0.29,0.07,0.59,0.13,0.89,0.2
	c0.17,0.04,0.33,0.08,0.51,0.11c0.27,0.05,0.54,0.1,0.82,0.15c0.46,0.08,0.9,0.15,1.34,0.21c0.08,0.01,0.16,0.01,0.24,0.03
	c0.41,0.05,0.8,0.09,1.19,0.12c0.19,0.02,0.38,0.05,0.57,0.06c0.05,0,0.09,0,0.14,0.01c0.45,0.03,0.87,0.04,1.3,0.04
	c0.14,0,0.3,0.02,0.44,0.01c0.02,0,0.03,0,0.05,0c0.57,0,1.12-0.03,1.65-0.07l5.95-3.46C229.95,64.97,229.41,64.99,228.84,64.99z"/>
<g>
	<path class="st21" d="M228.71,70.79l-0.11,38.79l8.64,4.99l-0.02,7.57l-26.17-15.11l0.02-7.57l9.47,5.47l0.08-27.57l-9.52-5.5
		l0.02-5.75c1.76,0.79,3.93,1.41,6.51,1.86c2.57,0.45,4.87,0.58,6.92,0.41L228.71,70.79z"/>
</g>
<g>
	<polygon class="st12" points="228.71,70.79 234.66,67.34 234.55,106.13 228.6,109.59 	"/>
</g>
<g>
	<polygon class="st20" points="224.54,68.38 230.48,64.93 234.66,67.34 228.71,70.79 	"/>
</g>
<g>
	<defs>
		<path id="SVGID_1_" d="M252.22,121.12l5.95-3.46c-0.42,0.24-0.75,0.53-0.98,0.86l-5.95,3.46
			C251.47,121.65,251.8,121.37,252.22,121.12z"/>
	</defs>
	<use xlink:href="#SVGID_1_"  style="overflow:visible;fill:#537D1C;"/>
	<clipPath id="SVGID_00000000199387206935067370000015689856634355373502_">
		<use xlink:href="#SVGID_1_"  style="overflow:visible;"/>
	</clipPath>
	<g style="clip-path:url(#SVGID_00000000199387206935067370000015689856634355373502_);enable-background:new    ;">
		<path class="st23" d="M252.22,121.12l5.95-3.46c-0.42,0.24-0.75,0.53-0.98,0.86l-5.95,3.46
			C251.47,121.65,251.8,121.37,252.22,121.12"/>
	</g>
</g>
<g>
	<polygon class="st24" points="251.24,121.98 257.19,118.53 275.48,129.09 269.54,132.54 	"/>
</g>
<g>
	<polygon class="st1" points="269.54,132.54 275.48,129.09 275.46,137.33 269.51,140.79 	"/>
</g>
<path class="st1" d="M262.74,105.61c-0.29,0.13-0.61,0.26-0.96,0.39c-0.11,0.04-0.23,0.08-0.35,0.13c-0.25,0.09-0.5,0.19-0.77,0.28
	c-0.25,0.09-0.53,0.18-0.8,0.27c-0.15,0.05-0.29,0.1-0.46,0.15c-0.45,0.14-0.92,0.29-1.41,0.44c-0.58,0.15-1.14,0.31-1.67,0.46
	c-0.15,0.04-0.28,0.09-0.43,0.14c-0.37,0.11-0.73,0.23-1.07,0.34c0,0-0.01,0-0.01,0.01c-0.3,0.11-0.58,0.21-0.86,0.32
	c-0.14,0.06-0.31,0.11-0.44,0.17c-0.41,0.17-0.8,0.34-1.15,0.52c-0.17,0.09-0.34,0.18-0.51,0.27l-5.95,3.46
	c0.17-0.1,0.33-0.19,0.51-0.27c0.36-0.18,0.74-0.35,1.15-0.52c0.15-0.06,0.31-0.12,0.46-0.18c0.28-0.11,0.55-0.22,0.85-0.32
	c0.31-0.11,0.65-0.21,0.99-0.32c0.17-0.05,0.33-0.11,0.51-0.16c0.53-0.16,1.08-0.31,1.66-0.46c0.5-0.15,0.97-0.3,1.42-0.44
	c0.12-0.04,0.23-0.08,0.34-0.12c0.31-0.1,0.61-0.2,0.89-0.3c0.01,0,0.01,0,0.02-0.01c0.29-0.1,0.54-0.2,0.8-0.29
	c0.1-0.04,0.21-0.08,0.31-0.11c0.35-0.13,0.67-0.26,0.96-0.39c0.3-0.13,0.59-0.27,0.86-0.43l5.95-3.46
	C263.32,105.34,263.04,105.48,262.74,105.61z"/>
<path class="st1" d="M256,92.04c0.01-0.2,0.03-0.4,0.06-0.58c0-0.03,0.01-0.06,0.01-0.09c0.03-0.19,0.06-0.37,0.1-0.54
	c0-0.01,0.01-0.02,0.01-0.03c0.04-0.16,0.08-0.32,0.13-0.46c0.01-0.02,0.01-0.04,0.02-0.06c0.05-0.14,0.11-0.27,0.17-0.39
	c0.02-0.04,0.04-0.08,0.07-0.12c0.04-0.07,0.09-0.14,0.13-0.21c0.06-0.09,0.13-0.18,0.21-0.26c0.03-0.04,0.07-0.08,0.1-0.11
	c0.11-0.11,0.23-0.2,0.36-0.28l-5.95,3.46c-0.13,0.08-0.25,0.17-0.36,0.28c-0.04,0.03-0.07,0.07-0.1,0.11
	c-0.07,0.08-0.14,0.16-0.21,0.26c-0.02,0.02-0.03,0.04-0.05,0.06c-0.03,0.05-0.05,0.1-0.08,0.15c-0.02,0.04-0.05,0.08-0.07,0.12
	c-0.01,0.02-0.02,0.03-0.03,0.05c-0.05,0.1-0.09,0.2-0.13,0.3c0,0.01-0.01,0.02-0.01,0.04c-0.01,0.02-0.01,0.04-0.02,0.06
	c-0.02,0.07-0.05,0.13-0.07,0.2c-0.02,0.08-0.05,0.17-0.07,0.26c0,0.01-0.01,0.02-0.01,0.03c0,0.01,0,0.01,0,0.02
	c-0.02,0.11-0.05,0.22-0.07,0.33c-0.01,0.06-0.02,0.13-0.03,0.19c0,0.03-0.01,0.06-0.01,0.09c0,0.02-0.01,0.05-0.01,0.07
	c-0.02,0.12-0.03,0.25-0.04,0.39c0,0.04-0.01,0.08-0.01,0.12c0,0.04-0.01,0.08-0.01,0.12c0,0.06-0.01,0.12-0.01,0.18
	c-0.01,0.15-0.01,0.31-0.01,0.47c0,0.01,0,0.02,0,0.03l-0.01,2.77l5.95-3.46l0.01-2.77c0-0.24,0.01-0.46,0.02-0.68
	C255.99,92.12,256,92.08,256,92.04z"/>
<path class="st24" d="M275.31,103.09c-0.01-0.19-0.02-0.39-0.03-0.59c0-0.07-0.01-0.14-0.02-0.21c0-0.05-0.01-0.09-0.01-0.14
	c-0.01-0.1-0.01-0.19-0.02-0.29c-0.02-0.23-0.05-0.45-0.08-0.69c-0.01-0.11-0.03-0.23-0.05-0.34c-0.01-0.06-0.02-0.12-0.03-0.18
	c-0.01-0.08-0.02-0.15-0.03-0.23c-0.04-0.28-0.09-0.56-0.15-0.84c-0.02-0.11-0.04-0.22-0.07-0.33c-0.02-0.09-0.03-0.17-0.05-0.26
	c-0.02-0.12-0.05-0.23-0.07-0.36c-0.08-0.35-0.16-0.7-0.25-1.07c-0.01-0.06-0.03-0.11-0.04-0.17c-0.03-0.11-0.06-0.22-0.09-0.33
	c-0.04-0.13-0.08-0.27-0.12-0.4c-0.01-0.04-0.03-0.08-0.04-0.12c-0.01-0.03-0.02-0.06-0.03-0.09c-0.02-0.06-0.04-0.13-0.06-0.19
	c-0.05-0.13-0.09-0.27-0.14-0.4c-0.03-0.08-0.06-0.15-0.09-0.23c-0.01-0.03-0.02-0.05-0.03-0.08c-0.01-0.03-0.02-0.06-0.04-0.09
	c-0.05-0.13-0.11-0.27-0.16-0.41c-0.05-0.13-0.11-0.26-0.17-0.39c0,0-0.01-0.01-0.01-0.02c0,0,0-0.01,0-0.01
	c-0.06-0.14-0.13-0.29-0.2-0.44c-0.07-0.16-0.15-0.32-0.23-0.48c0,0,0-0.01-0.01-0.01c-0.01-0.02-0.02-0.03-0.02-0.05
	c-0.09-0.18-0.18-0.36-0.28-0.54c-0.04-0.07-0.08-0.14-0.12-0.21c-0.08-0.14-0.16-0.28-0.24-0.43c-0.05-0.09-0.1-0.18-0.15-0.28
	c-0.03-0.04-0.06-0.09-0.08-0.13c-0.31-0.53-0.65-1.06-1.02-1.61c-0.02-0.04-0.04-0.07-0.07-0.11c-0.15-0.22-0.3-0.43-0.45-0.65
	c-0.07-0.11-0.15-0.21-0.23-0.31c-0.12-0.16-0.24-0.32-0.36-0.48c-0.05-0.06-0.1-0.12-0.14-0.18c-0.02-0.03-0.05-0.06-0.07-0.09
	c-0.04-0.05-0.09-0.11-0.13-0.16c-0.12-0.14-0.24-0.28-0.36-0.43c-0.09-0.1-0.19-0.21-0.28-0.31c-0.02-0.02-0.04-0.04-0.06-0.07
	c-0.02-0.02-0.04-0.04-0.06-0.06c-0.14-0.16-0.29-0.31-0.44-0.46c-0.11-0.12-0.23-0.23-0.35-0.35c-0.03-0.03-0.06-0.06-0.09-0.09
	c-0.02-0.02-0.04-0.04-0.06-0.06c-0.18-0.18-0.37-0.35-0.56-0.52c-0.08-0.08-0.17-0.15-0.26-0.23c-0.06-0.05-0.12-0.11-0.19-0.16
	c-0.06-0.05-0.12-0.11-0.18-0.16c-0.23-0.19-0.46-0.38-0.69-0.57c-0.03-0.02-0.05-0.04-0.08-0.06c-0.06-0.04-0.12-0.09-0.17-0.13
	c-0.17-0.13-0.34-0.26-0.51-0.39c-0.12-0.09-0.24-0.17-0.36-0.26c-0.1-0.07-0.19-0.14-0.29-0.2c-0.07-0.05-0.13-0.09-0.2-0.14
	c-0.29-0.2-0.59-0.4-0.9-0.59c-0.01-0.01-0.02-0.01-0.03-0.02c0,0,0,0-0.01,0c-0.34-0.22-0.7-0.43-1.06-0.65
	c-0.09-0.05-0.17-0.1-0.26-0.15c-0.26-0.15-0.52-0.29-0.77-0.43c-0.21-0.11-0.41-0.21-0.61-0.32c-0.07-0.04-0.14-0.07-0.21-0.11
	c-0.04-0.02-0.07-0.04-0.11-0.06c-0.29-0.14-0.57-0.28-0.86-0.4c-0.1-0.05-0.21-0.09-0.31-0.13c-0.08-0.03-0.15-0.06-0.22-0.09
	c-0.09-0.04-0.18-0.08-0.27-0.11c-0.26-0.1-0.51-0.2-0.76-0.29c-0.06-0.02-0.12-0.04-0.18-0.06c-0.06-0.02-0.12-0.04-0.18-0.06
	c-0.12-0.04-0.24-0.08-0.36-0.12c-0.24-0.07-0.47-0.14-0.7-0.19c-0.04-0.01-0.08-0.02-0.12-0.03c-0.05-0.01-0.1-0.02-0.14-0.03
	c-0.14-0.03-0.28-0.07-0.42-0.09c-0.23-0.04-0.45-0.08-0.67-0.11c-0.02,0-0.03,0-0.05,0c-0.03,0-0.06-0.01-0.09-0.01
	c-0.18-0.02-0.36-0.04-0.54-0.06c-0.17-0.01-0.34-0.01-0.5-0.02c-0.04,0-0.08,0-0.12,0c-0.02,0-0.04,0-0.07,0
	c-0.25,0-0.49,0.01-0.73,0.03c-0.06,0.01-0.12,0.02-0.18,0.03c-0.1,0.01-0.19,0.03-0.29,0.04c-0.11,0.02-0.23,0.03-0.34,0.05
	c-0.19,0.04-0.37,0.08-0.56,0.13c-0.1,0.03-0.21,0.06-0.31,0.1c-0.03,0.01-0.06,0.03-0.09,0.04c-0.25,0.09-0.5,0.2-0.73,0.33
	c0,0,0,0,0,0l-5.95,3.46c0.23-0.13,0.47-0.24,0.73-0.33c0.13-0.05,0.26-0.1,0.4-0.14c0.29-0.08,0.59-0.13,0.89-0.18
	c0.1-0.01,0.19-0.03,0.29-0.04c0.32-0.04,0.64-0.06,0.97-0.06c0.04,0,0.08,0,0.12,0c0.34,0.01,0.68,0.03,1.04,0.07
	c0.03,0,0.06,0.01,0.09,0.01c0.37,0.05,0.75,0.12,1.14,0.21c0.05,0.01,0.1,0.02,0.15,0.03c0.38,0.09,0.77,0.21,1.17,0.34
	c0.06,0.02,0.12,0.04,0.18,0.06c0.39,0.13,0.8,0.29,1.21,0.46c0.07,0.03,0.15,0.06,0.22,0.1c0.42,0.18,0.84,0.38,1.28,0.59
	c0.07,0.03,0.14,0.07,0.2,0.11c0.45,0.23,0.91,0.48,1.38,0.75c0.45,0.26,0.9,0.53,1.32,0.8c0.01,0.01,0.02,0.01,0.03,0.02
	c0.38,0.24,0.75,0.49,1.1,0.74c0.1,0.07,0.19,0.13,0.29,0.2c0.3,0.21,0.59,0.43,0.88,0.65c0.06,0.04,0.11,0.09,0.17,0.13
	c0.33,0.26,0.65,0.52,0.96,0.79c0.06,0.05,0.12,0.11,0.19,0.16c0.3,0.27,0.6,0.53,0.88,0.81c0.03,0.03,0.06,0.06,0.09,0.09
	c0.29,0.29,0.58,0.58,0.85,0.87c0.02,0.02,0.04,0.04,0.06,0.07c0.27,0.3,0.53,0.6,0.78,0.9c0.02,0.03,0.05,0.06,0.07,0.09
	c0.26,0.32,0.5,0.64,0.74,0.97c0.18,0.26,0.35,0.51,0.52,0.76c0.37,0.54,0.7,1.08,1.01,1.61c0.08,0.14,0.16,0.27,0.24,0.41
	c0.08,0.14,0.16,0.28,0.24,0.43c0.14,0.25,0.27,0.5,0.39,0.75c0.01,0.02,0.02,0.03,0.02,0.05c0.16,0.32,0.3,0.63,0.44,0.94
	c0,0.01,0,0.01,0.01,0.02c0.13,0.3,0.25,0.6,0.37,0.89c0.01,0.03,0.02,0.05,0.03,0.08c0.1,0.28,0.2,0.55,0.29,0.82
	c0.01,0.03,0.02,0.06,0.03,0.09c0.09,0.29,0.17,0.58,0.25,0.86c0.14,0.55,0.26,1.08,0.36,1.59c0.02,0.09,0.04,0.18,0.05,0.26
	c0.1,0.48,0.18,0.95,0.25,1.4c0.01,0.06,0.02,0.12,0.03,0.18c0.06,0.46,0.11,0.9,0.15,1.32c0,0.05,0.01,0.09,0.01,0.14
	c0.03,0.46,0.05,0.9,0.05,1.31c0,0.35-0.01,0.69-0.03,1.03c0,0.09-0.01,0.17-0.02,0.26c-0.02,0.26-0.04,0.51-0.06,0.76
	c-0.01,0.07-0.01,0.15-0.02,0.22c-0.04,0.3-0.08,0.6-0.13,0.89c-0.01,0.06-0.02,0.12-0.04,0.18c-0.04,0.23-0.09,0.45-0.14,0.66
	c-0.02,0.09-0.05,0.18-0.07,0.27c-0.05,0.18-0.1,0.36-0.16,0.53c-0.03,0.1-0.06,0.2-0.1,0.29c-0.05,0.15-0.11,0.29-0.17,0.43
	c-0.05,0.12-0.1,0.25-0.15,0.37c-0.04,0.1-0.09,0.18-0.14,0.28c-0.1,0.19-0.2,0.38-0.31,0.56c-0.1,0.17-0.2,0.33-0.31,0.49
	c-0.95,1.33-2.03,2.35-3.25,3.06l5.95-3.46c1.22-0.71,2.3-1.73,3.25-3.06c0.08-0.11,0.16-0.23,0.24-0.35
	c0.03-0.04,0.05-0.09,0.08-0.14c0.11-0.18,0.21-0.37,0.31-0.56c0.03-0.06,0.07-0.12,0.1-0.18c0.01-0.03,0.03-0.06,0.04-0.09
	c0.05-0.12,0.1-0.24,0.15-0.37c0.04-0.1,0.09-0.2,0.13-0.3c0.01-0.04,0.03-0.08,0.04-0.12c0.03-0.09,0.06-0.19,0.1-0.29
	c0.03-0.1,0.07-0.2,0.1-0.31c0.02-0.07,0.04-0.15,0.06-0.23c0.02-0.09,0.05-0.18,0.07-0.27c0.02-0.07,0.04-0.13,0.05-0.2
	c0.03-0.15,0.06-0.31,0.09-0.46c0.01-0.06,0.02-0.12,0.04-0.18c0-0.02,0.01-0.04,0.01-0.06c0.04-0.23,0.08-0.47,0.11-0.72
	c0-0.04,0.01-0.07,0.01-0.11c0.01-0.07,0.01-0.15,0.02-0.22c0.01-0.14,0.03-0.27,0.04-0.41c0.01-0.11,0.01-0.23,0.02-0.35
	c0.01-0.08,0.01-0.17,0.02-0.26c0-0.06,0.01-0.11,0.01-0.17c0.01-0.27,0.02-0.54,0.02-0.81c0-0.02,0-0.03,0-0.05
	C275.32,103.44,275.32,103.26,275.31,103.09z"/>
<g>
	<path class="st25" d="M256.23,85.87c3.65,2.1,6.45,4.53,8.4,7.29c1.96,2.75,3.24,5.32,3.84,7.7c0.6,2.38,0.9,4.45,0.9,6.21
		c-0.01,3.11-0.63,5.51-1.85,7.22c-1.22,1.72-2.67,2.91-4.34,3.59c-1.67,0.68-3.75,1.27-6.22,1.78c-1.89,0.41-3.3,0.81-4.24,1.21
		c-0.67,0.29-1.16,0.66-1.48,1.11l18.29,10.56l-0.02,8.24l-28.23-16.3l0.01-2.43c0.01-2.57,0.5-4.6,1.49-6.08
		c0.99-1.48,2.2-2.57,3.63-3.28c1.43-0.71,3.31-1.36,5.63-1.96c2-0.6,3.58-1.16,4.75-1.66c1.16-0.5,2.13-1.23,2.92-2.17
		c0.98-1.19,1.48-2.89,1.49-5.1c0-1.44-0.45-2.98-1.37-4.62c-0.92-1.64-2.24-2.96-3.97-3.95c-3.88-2.24-5.83-1.21-5.84,3.07
		l-0.01,2.77l-8-4.62c-0.04-0.16-0.08-0.5-0.14-1.03c-0.06-0.53-0.09-1.13-0.09-1.81c0.01-4.68,1.39-7.42,4.12-8.19
		C248.63,82.66,252.08,83.47,256.23,85.87z"/>
</g>
<g>
	<polygon class="st4" points="273.49,128.73 279.44,125.27 287.61,129.99 281.66,133.45 	"/>
</g>
<path class="st4" d="M298.07,142.02c-0.1,0.04-0.22,0.08-0.33,0.1c-0.04,0.01-0.08,0.02-0.12,0.03c-0.13,0.03-0.26,0.05-0.39,0.06
	c-0.02,0-0.05,0-0.07,0c-0.14,0.01-0.28,0.01-0.43,0c-0.01,0-0.03,0-0.04,0c-0.15-0.01-0.31-0.04-0.48-0.07
	c-0.01,0-0.03-0.01-0.04-0.01c-0.16-0.04-0.33-0.08-0.5-0.13c-0.02-0.01-0.04-0.01-0.06-0.02c-0.17-0.06-0.35-0.12-0.53-0.19
	c-0.02-0.01-0.04-0.02-0.07-0.03c-0.18-0.08-0.37-0.16-0.57-0.26c-0.02-0.01-0.03-0.02-0.05-0.03c-0.2-0.1-0.41-0.21-0.62-0.34
	c-0.49-0.28-0.96-0.59-1.39-0.9c-0.01-0.01-0.02-0.01-0.03-0.02c-0.43-0.31-0.83-0.64-1.2-0.99c-0.01-0.01-0.02-0.02-0.04-0.03
	c-0.37-0.35-0.72-0.71-1.03-1.08c0,0-0.01-0.01-0.01-0.01c-0.32-0.38-0.61-0.78-0.88-1.2c-0.26-0.42-0.49-0.84-0.69-1.27
	c0,0-0.01-0.01-0.01-0.01c-0.19-0.43-0.36-0.87-0.49-1.32c0-0.01,0-0.01-0.01-0.02c-0.13-0.45-0.22-0.91-0.29-1.37
	c0-0.01,0-0.02,0-0.03c-0.06-0.47-0.1-0.96-0.09-1.45l0-1.42l-5.95,3.46l0,1.42c0,0.12,0,0.24,0.01,0.36c0,0.12,0.01,0.24,0.02,0.36
	c0.01,0.11,0.02,0.22,0.03,0.33c0.01,0.11,0.02,0.21,0.04,0.32c0,0.03,0.01,0.05,0.01,0.08c0,0.01,0,0.02,0,0.03
	c0.01,0.06,0.02,0.13,0.03,0.19c0.02,0.1,0.03,0.19,0.05,0.29c0.02,0.09,0.04,0.19,0.06,0.28c0.02,0.09,0.04,0.18,0.06,0.27
	c0.02,0.09,0.05,0.17,0.07,0.26c0.01,0.03,0.02,0.05,0.02,0.08c0,0.01,0,0.01,0.01,0.02c0.01,0.05,0.03,0.1,0.04,0.15
	c0.02,0.08,0.05,0.16,0.08,0.24c0.03,0.08,0.05,0.15,0.08,0.23c0.03,0.07,0.05,0.14,0.08,0.22c0.03,0.07,0.06,0.14,0.08,0.21
	c0.03,0.07,0.06,0.14,0.09,0.2c0.01,0.02,0.02,0.05,0.03,0.07c0,0.01,0,0.01,0.01,0.01c0.02,0.04,0.04,0.08,0.05,0.12
	c0.03,0.07,0.07,0.15,0.11,0.22c0.04,0.08,0.08,0.17,0.13,0.25c0.07,0.12,0.13,0.24,0.2,0.37c0.06,0.11,0.13,0.22,0.2,0.32
	c0.06,0.1,0.13,0.2,0.19,0.29c0.09,0.13,0.17,0.25,0.27,0.38c0.07,0.09,0.13,0.18,0.2,0.27c0.06,0.08,0.13,0.16,0.19,0.24
	c0.01,0.01,0.01,0.01,0.02,0.02c0,0,0.01,0.01,0.01,0.01c0.06,0.07,0.11,0.14,0.17,0.2c0.07,0.08,0.14,0.16,0.21,0.24
	c0.08,0.08,0.16,0.17,0.24,0.25c0.09,0.09,0.17,0.18,0.26,0.26c0.05,0.05,0.1,0.09,0.15,0.13c0.01,0.01,0.03,0.02,0.04,0.04
	c0.04,0.03,0.07,0.07,0.11,0.1c0.1,0.09,0.21,0.19,0.32,0.28c0.11,0.1,0.23,0.19,0.35,0.29c0.12,0.1,0.25,0.19,0.38,0.29
	c0.01,0.01,0.03,0.02,0.04,0.03c0.01,0.01,0.02,0.02,0.03,0.02c0.11,0.08,0.22,0.16,0.33,0.24c0.15,0.1,0.29,0.2,0.45,0.29
	c0.16,0.1,0.32,0.2,0.49,0.3c0.04,0.02,0.08,0.05,0.12,0.07c0.11,0.06,0.21,0.12,0.32,0.18c0.1,0.06,0.2,0.11,0.3,0.16
	c0.02,0.01,0.03,0.02,0.05,0.03c0.01,0,0.02,0.01,0.02,0.01c0.12,0.06,0.23,0.11,0.35,0.16c0.07,0.03,0.13,0.06,0.19,0.08
	c0.02,0.01,0.05,0.02,0.07,0.03c0.02,0.01,0.04,0.02,0.06,0.02c0.1,0.04,0.2,0.08,0.3,0.11c0.06,0.02,0.11,0.04,0.17,0.06
	c0.02,0.01,0.04,0.01,0.06,0.02c0.02,0.01,0.04,0.01,0.05,0.02c0.09,0.03,0.18,0.05,0.27,0.07c0.06,0.02,0.12,0.03,0.18,0.04
	c0.01,0,0.03,0.01,0.04,0.01c0.01,0,0.02,0.01,0.04,0.01c0.09,0.02,0.17,0.03,0.26,0.04c0.06,0.01,0.12,0.01,0.18,0.02
	c0.01,0,0.03,0,0.04,0c0.01,0,0.02,0,0.03,0c0.09,0.01,0.17,0.01,0.26,0.01c0.05,0,0.09,0,0.14-0.01c0.02,0,0.05,0,0.07,0
	c0.02,0,0.04,0,0.06,0c0.1-0.01,0.2-0.02,0.29-0.04c0.01,0,0.03-0.01,0.04-0.01c0.04-0.01,0.08-0.02,0.12-0.03
	c0.06-0.02,0.12-0.03,0.18-0.05c0.05-0.02,0.1-0.03,0.14-0.05c0.08-0.03,0.15-0.07,0.23-0.11l5.95-3.46
	C298.22,141.95,298.15,141.99,298.07,142.02z"/>
<g>
	<polygon class="st4" points="294.87,131.33 300.82,127.87 300.82,128.14 294.87,131.6 	"/>
</g>
<path class="st4" d="M288.52,110.27c0.01-0.17,0.03-0.34,0.05-0.5c0-0.03,0.01-0.05,0.01-0.08c0.02-0.16,0.05-0.31,0.09-0.45
	c0-0.02,0.01-0.04,0.02-0.06c0.04-0.15,0.08-0.28,0.12-0.41c0,0,0,0,0,0c0.04-0.12,0.1-0.23,0.15-0.34
	c0.02-0.04,0.04-0.08,0.06-0.11c0.03-0.06,0.07-0.11,0.1-0.16c0.06-0.09,0.13-0.17,0.2-0.24c0.03-0.03,0.06-0.07,0.09-0.1
	c0.1-0.1,0.21-0.18,0.33-0.25l-5.95,3.46c-0.12,0.07-0.23,0.16-0.33,0.25c-0.03,0.03-0.06,0.06-0.09,0.1
	c-0.07,0.07-0.13,0.16-0.2,0.24c-0.02,0.02-0.03,0.04-0.05,0.06c-0.02,0.03-0.04,0.07-0.06,0.1c-0.02,0.04-0.04,0.07-0.06,0.11
	c-0.01,0.03-0.03,0.05-0.04,0.07c-0.04,0.08-0.08,0.17-0.11,0.26c0,0,0,0,0,0c0,0,0,0,0,0c-0.03,0.08-0.06,0.17-0.08,0.26
	c-0.01,0.05-0.03,0.1-0.04,0.16c-0.01,0.02-0.01,0.04-0.02,0.06c0,0.02-0.01,0.03-0.01,0.05c-0.02,0.09-0.04,0.18-0.06,0.28
	c-0.01,0.04-0.01,0.08-0.02,0.12c0,0.03-0.01,0.05-0.01,0.08c0,0.03-0.01,0.06-0.01,0.1c-0.01,0.1-0.02,0.21-0.03,0.32
	c0,0.03,0,0.06-0.01,0.08c0,0.03,0,0.06-0.01,0.09c0,0.06-0.01,0.11-0.01,0.17c-0.01,0.12-0.01,0.25-0.01,0.38l0,0l0,0
	c0,0.01,0,0.02,0,0.02l0,1.28l5.95-3.46l0-1.28c0-0.2,0.01-0.39,0.02-0.58C288.51,110.33,288.51,110.3,288.52,110.27z"/>
<path class="st4" d="M297.36,120.9c-0.11,0.06-0.23,0.1-0.35,0.14c-0.05,0.02-0.1,0.03-0.15,0.04c-0.09,0.02-0.18,0.05-0.27,0.06
	c-0.03,0-0.06,0.01-0.09,0.01c-0.13,0.01-0.26,0.02-0.39,0.02c-0.02,0-0.04,0-0.06,0c-0.14,0-0.28-0.02-0.43-0.04
	c-0.02,0-0.03-0.01-0.05-0.01c-0.15-0.02-0.3-0.06-0.45-0.1c-0.02-0.01-0.04-0.01-0.05-0.01c-0.16-0.04-0.32-0.1-0.48-0.16
	c-0.02-0.01-0.03-0.01-0.05-0.02c-0.17-0.07-0.34-0.14-0.52-0.23c-0.01-0.01-0.03-0.01-0.04-0.02c-0.19-0.09-0.38-0.19-0.58-0.31
	l-3.17-1.83l-5.95,3.46l3.17,1.83c0.08,0.05,0.16,0.09,0.25,0.14c0.1,0.05,0.2,0.11,0.3,0.15c0.01,0.01,0.02,0.01,0.03,0.02
	c0.01,0.01,0.03,0.01,0.04,0.02c0.07,0.03,0.14,0.07,0.2,0.1c0.09,0.04,0.18,0.08,0.26,0.11c0.02,0.01,0.03,0.01,0.05,0.02
	c0.02,0.01,0.03,0.01,0.05,0.02c0.05,0.02,0.1,0.04,0.15,0.06c0.08,0.03,0.16,0.05,0.24,0.08c0.03,0.01,0.06,0.02,0.09,0.02
	c0.02,0,0.04,0.01,0.05,0.01c0.03,0.01,0.06,0.02,0.09,0.03c0.08,0.02,0.16,0.04,0.23,0.05c0.04,0.01,0.08,0.01,0.13,0.02
	c0.02,0,0.03,0.01,0.05,0.01c0.02,0,0.04,0.01,0.06,0.01c0.08,0.01,0.16,0.02,0.23,0.02c0.05,0,0.09,0,0.13,0c0.02,0,0.04,0,0.06,0
	c0.02,0,0.04,0,0.05,0c0.09,0,0.17,0,0.26-0.01c0.03,0,0.05-0.01,0.08-0.01c0.03,0,0.06-0.01,0.09-0.01
	c0.04-0.01,0.08-0.01,0.12-0.02c0.05-0.01,0.1-0.03,0.16-0.04c0.05-0.01,0.1-0.02,0.14-0.04c0.02-0.01,0.04-0.01,0.06-0.01
	c0.1-0.04,0.2-0.08,0.3-0.13c0.04-0.02,0.07-0.04,0.11-0.06l5.95-3.46C297.44,120.86,297.4,120.88,297.36,120.9z"/>
<path class="st26" d="M307.95,142.99c0-0.11-0.01-0.23-0.02-0.34c0-0.06,0-0.11-0.01-0.17c0-0.04,0-0.09-0.01-0.13
	c-0.01-0.2-0.03-0.41-0.05-0.61c-0.01-0.07-0.01-0.13-0.02-0.2c-0.01-0.05-0.01-0.11-0.02-0.16c-0.01-0.08-0.02-0.15-0.03-0.23
	c-0.02-0.19-0.05-0.38-0.08-0.56c-0.01-0.05-0.02-0.09-0.02-0.14c-0.01-0.04-0.01-0.09-0.02-0.13c-0.02-0.09-0.03-0.18-0.05-0.28
	c-0.03-0.18-0.07-0.36-0.11-0.53c-0.01-0.04-0.02-0.08-0.03-0.12c-0.01-0.04-0.02-0.08-0.03-0.12c-0.02-0.09-0.04-0.19-0.06-0.28
	c-0.04-0.17-0.09-0.34-0.13-0.51c-0.01-0.05-0.03-0.1-0.04-0.14c-0.01-0.04-0.02-0.07-0.03-0.11c-0.02-0.08-0.04-0.16-0.07-0.24
	c-0.05-0.16-0.1-0.31-0.15-0.47c-0.02-0.07-0.05-0.14-0.07-0.21c-0.01-0.03-0.02-0.06-0.03-0.1c-0.02-0.05-0.03-0.09-0.05-0.14
	c-0.05-0.14-0.11-0.29-0.16-0.43c-0.05-0.13-0.11-0.27-0.16-0.4c0,0,0-0.01,0-0.01c0,0,0,0,0-0.01c-0.06-0.14-0.12-0.28-0.18-0.41
	c-0.06-0.14-0.13-0.28-0.19-0.42c-0.03-0.06-0.05-0.11-0.08-0.17c-0.05-0.1-0.1-0.21-0.15-0.31c-0.1-0.19-0.19-0.38-0.3-0.57
	c-0.15-0.28-0.3-0.55-0.45-0.81c-0.03-0.05-0.06-0.1-0.09-0.15c-0.07-0.12-0.15-0.24-0.23-0.36c-0.17-0.28-0.34-0.56-0.52-0.82
	c-0.17-0.24-0.34-0.48-0.51-0.72c-0.01-0.01-0.02-0.02-0.03-0.04c-0.01-0.01-0.01-0.02-0.02-0.03c-0.14-0.18-0.27-0.36-0.41-0.54
	c-0.13-0.16-0.26-0.33-0.39-0.49c-0.13-0.16-0.27-0.31-0.4-0.47c-0.04-0.05-0.09-0.09-0.13-0.14c-0.02-0.02-0.04-0.04-0.06-0.06
	c-0.08-0.09-0.16-0.18-0.24-0.27c-0.15-0.17-0.31-0.33-0.47-0.49c-0.17-0.17-0.34-0.34-0.51-0.51c-0.1-0.1-0.2-0.19-0.31-0.29
	l-5.95,3.46c0.54,0.5,1.04,1.02,1.53,1.55c0.02,0.02,0.04,0.04,0.06,0.06c0.48,0.54,0.93,1.09,1.36,1.67
	c0.01,0.01,0.02,0.02,0.03,0.04c0.37,0.5,0.7,1.02,1.03,1.54c0.08,0.12,0.16,0.24,0.23,0.36c0.36,0.6,0.69,1.21,0.99,1.85
	c0.16,0.33,0.31,0.67,0.45,1.01c0,0,0,0,0,0.01c0.13,0.32,0.26,0.65,0.37,0.97c0.01,0.03,0.02,0.06,0.03,0.1
	c0.11,0.31,0.2,0.61,0.29,0.92c0.01,0.04,0.02,0.07,0.03,0.11c0.09,0.31,0.17,0.62,0.24,0.93c0.01,0.04,0.02,0.08,0.03,0.12
	c0.07,0.31,0.13,0.62,0.18,0.93c0.01,0.04,0.02,0.09,0.02,0.13c0.05,0.31,0.09,0.62,0.13,0.93c0.01,0.05,0.01,0.11,0.02,0.16
	c0.03,0.31,0.06,0.63,0.08,0.94c0,0.06,0.01,0.11,0.01,0.17c0.02,0.33,0.03,0.66,0.02,0.99c0,0.3-0.01,0.6-0.03,0.88
	c0,0.06-0.01,0.13-0.01,0.19c-0.02,0.28-0.04,0.54-0.08,0.8c0,0.03-0.01,0.06-0.01,0.08c-0.03,0.24-0.07,0.46-0.11,0.69
	c-0.01,0.06-0.02,0.11-0.03,0.17c-0.05,0.24-0.11,0.47-0.18,0.69c-0.01,0.04-0.03,0.08-0.04,0.12c-0.06,0.18-0.12,0.35-0.18,0.52
	c-0.03,0.08-0.07,0.16-0.1,0.24c-0.05,0.12-0.11,0.23-0.16,0.35c-0.06,0.12-0.13,0.24-0.2,0.36c-0.05,0.09-0.1,0.17-0.15,0.25
	c-0.16,0.24-0.33,0.47-0.52,0.68c-0.37,0.4-0.78,0.74-1.24,1l5.95-3.46c0.46-0.26,0.87-0.6,1.24-1c0.19-0.21,0.36-0.44,0.52-0.68
	c0.02-0.03,0.04-0.05,0.06-0.08c0.03-0.05,0.06-0.11,0.09-0.17c0.07-0.12,0.13-0.23,0.2-0.36c0.02-0.05,0.05-0.09,0.08-0.14
	c0.03-0.07,0.06-0.14,0.09-0.21c0.04-0.08,0.07-0.16,0.1-0.24c0.02-0.04,0.04-0.08,0.05-0.13c0.05-0.13,0.09-0.26,0.13-0.39
	c0.01-0.04,0.03-0.08,0.04-0.12c0-0.01,0.01-0.02,0.01-0.04c0.05-0.17,0.1-0.35,0.14-0.54c0.01-0.04,0.02-0.08,0.02-0.12
	c0.01-0.05,0.02-0.11,0.03-0.17c0.02-0.08,0.04-0.16,0.05-0.25c0.02-0.14,0.04-0.29,0.06-0.44c0-0.03,0.01-0.05,0.01-0.08
	c0-0.01,0-0.02,0-0.03c0.02-0.19,0.04-0.38,0.06-0.57c0.01-0.07,0.01-0.13,0.01-0.2c0-0.06,0.01-0.13,0.01-0.19
	c0-0.07,0.01-0.14,0.01-0.21c0.01-0.21,0.01-0.42,0.01-0.63c0-0.01,0-0.03,0-0.04C307.96,143.42,307.95,143.21,307.95,142.99z"/>
<path class="st26" d="M307.19,120.48c-0.01-0.22-0.02-0.44-0.03-0.65c0-0.05-0.01-0.1-0.01-0.16c0-0.04-0.01-0.08-0.01-0.11
	c-0.01-0.12-0.02-0.23-0.03-0.35c-0.02-0.2-0.04-0.4-0.07-0.59c-0.02-0.15-0.04-0.3-0.06-0.45c0-0.02-0.01-0.04-0.01-0.06
	c0-0.02-0.01-0.04-0.01-0.06c-0.03-0.19-0.06-0.37-0.1-0.56c-0.03-0.18-0.07-0.36-0.11-0.54c-0.02-0.08-0.04-0.15-0.05-0.23
	c-0.01-0.03-0.01-0.06-0.02-0.1c-0.02-0.07-0.03-0.13-0.05-0.2c-0.04-0.17-0.09-0.35-0.14-0.52c-0.05-0.17-0.09-0.33-0.15-0.5
	c-0.01-0.05-0.03-0.1-0.05-0.15c-0.01-0.03-0.02-0.05-0.02-0.08c-0.03-0.09-0.05-0.17-0.08-0.26c-0.05-0.15-0.11-0.31-0.16-0.46
	c-0.05-0.15-0.11-0.3-0.17-0.45c-0.02-0.06-0.05-0.13-0.08-0.19c-0.01-0.02-0.02-0.04-0.03-0.06c-0.02-0.06-0.05-0.12-0.07-0.18
	c-0.06-0.14-0.12-0.28-0.18-0.42c-0.06-0.14-0.13-0.29-0.2-0.43c-0.05-0.1-0.1-0.21-0.15-0.31c-0.01-0.02-0.02-0.04-0.03-0.06
	c-0.01-0.03-0.03-0.06-0.04-0.09c-0.09-0.17-0.18-0.35-0.27-0.52c-0.12-0.23-0.25-0.46-0.38-0.69c-0.02-0.03-0.03-0.06-0.05-0.09
	c-0.01-0.01-0.01-0.03-0.02-0.04c-0.26-0.44-0.53-0.87-0.82-1.31c-0.01-0.02-0.02-0.04-0.04-0.06c-0.21-0.31-0.43-0.62-0.66-0.93
	c-0.06-0.09-0.13-0.17-0.2-0.26c-0.04-0.05-0.08-0.11-0.12-0.16c-0.06-0.07-0.11-0.15-0.17-0.23c-0.15-0.19-0.31-0.39-0.47-0.58
	c-0.09-0.11-0.19-0.22-0.28-0.33c-0.03-0.04-0.06-0.07-0.09-0.11c-0.04-0.04-0.07-0.08-0.1-0.12c-0.17-0.19-0.33-0.37-0.5-0.56
	c-0.14-0.15-0.28-0.29-0.42-0.44c-0.02-0.03-0.05-0.05-0.07-0.08c-0.02-0.02-0.04-0.04-0.06-0.06c-0.2-0.2-0.4-0.4-0.6-0.6
	c-0.14-0.13-0.28-0.26-0.41-0.39c-0.05-0.04-0.09-0.09-0.14-0.13c-0.04-0.03-0.07-0.07-0.11-0.1c-0.23-0.21-0.47-0.42-0.72-0.62
	c-0.09-0.08-0.19-0.15-0.28-0.23c-0.08-0.06-0.15-0.12-0.23-0.19c-0.09-0.07-0.17-0.14-0.26-0.21c-0.27-0.21-0.54-0.42-0.82-0.63
	c-0.03-0.02-0.06-0.04-0.1-0.07c-0.06-0.05-0.13-0.09-0.19-0.14c-0.2-0.14-0.39-0.28-0.59-0.42c-0.17-0.12-0.36-0.24-0.53-0.35
	c-0.09-0.06-0.17-0.11-0.26-0.17c-0.05-0.03-0.1-0.07-0.15-0.1c-0.33-0.21-0.67-0.42-1.02-0.62c-0.08-0.05-0.16-0.1-0.25-0.14
	c-0.22-0.13-0.44-0.25-0.66-0.37c-0.06-0.03-0.11-0.06-0.16-0.09c-0.11-0.06-0.22-0.12-0.34-0.17c-0.1-0.05-0.2-0.11-0.3-0.16
	c-0.09-0.04-0.17-0.08-0.26-0.12c-0.1-0.05-0.2-0.1-0.3-0.14c-0.06-0.03-0.13-0.06-0.19-0.09c-0.14-0.06-0.28-0.12-0.42-0.18
	c-0.07-0.03-0.15-0.06-0.22-0.09c-0.02-0.01-0.05-0.02-0.07-0.03c-0.23-0.09-0.45-0.18-0.67-0.25c-0.02-0.01-0.03-0.01-0.04-0.01
	c-0.05-0.02-0.11-0.03-0.16-0.05c-0.15-0.05-0.3-0.1-0.45-0.15c-0.06-0.02-0.11-0.03-0.17-0.05c-0.08-0.02-0.16-0.04-0.24-0.07
	c-0.07-0.02-0.15-0.04-0.22-0.06c-0.11-0.03-0.21-0.05-0.32-0.07c-0.07-0.02-0.14-0.03-0.21-0.05c-0.03-0.01-0.06-0.01-0.09-0.02
	c-0.21-0.04-0.42-0.08-0.62-0.1c0,0-0.01,0-0.01,0c-0.02,0-0.05,0-0.07-0.01c-0.18-0.02-0.37-0.04-0.55-0.06
	c-0.05,0-0.11-0.01-0.16-0.01c-0.17-0.01-0.34-0.01-0.51-0.01c-0.12,0-0.24,0.01-0.36,0.02c-0.06,0-0.13,0-0.19,0.01
	c-0.03,0-0.07,0-0.11,0c-0.24,0.02-0.47,0.05-0.69,0.1c-0.01,0-0.02,0.01-0.03,0.01c-0.09,0.02-0.17,0.05-0.26,0.07
	c-0.17,0.04-0.33,0.08-0.49,0.13c-0.02,0.01-0.03,0.02-0.05,0.02c-0.29,0.11-0.57,0.23-0.83,0.38l-5.95,3.46
	c0.26-0.15,0.54-0.28,0.84-0.38c0.17-0.06,0.36-0.11,0.54-0.16c0.09-0.02,0.17-0.05,0.26-0.07c0.27-0.05,0.54-0.09,0.83-0.11
	c0.06,0,0.13-0.01,0.19-0.01c0.28-0.01,0.57-0.02,0.87,0c0.23,0.01,0.47,0.04,0.71,0.07c0.02,0,0.05,0,0.07,0.01
	c0.24,0.03,0.48,0.07,0.73,0.12c0.07,0.01,0.14,0.03,0.21,0.05c0.18,0.04,0.36,0.08,0.55,0.13c0.08,0.02,0.16,0.04,0.24,0.07
	c0.2,0.06,0.41,0.12,0.62,0.19c0.05,0.02,0.1,0.03,0.16,0.05c0.26,0.09,0.52,0.19,0.79,0.3c0.07,0.03,0.15,0.06,0.22,0.09
	c0.2,0.08,0.4,0.17,0.6,0.27c0.1,0.05,0.2,0.09,0.3,0.14c0.18,0.09,0.37,0.18,0.56,0.28c0.11,0.06,0.22,0.11,0.33,0.17
	c0.27,0.14,0.55,0.29,0.82,0.45c0.48,0.28,0.95,0.57,1.42,0.87c0.09,0.06,0.17,0.11,0.26,0.17c0.38,0.25,0.76,0.51,1.12,0.77
	c0.06,0.05,0.13,0.09,0.19,0.14c0.4,0.29,0.8,0.6,1.18,0.91c0.08,0.06,0.15,0.12,0.23,0.18c0.38,0.31,0.75,0.63,1.1,0.95
	c0.05,0.04,0.09,0.09,0.14,0.13c0.37,0.34,0.73,0.69,1.08,1.04c0.02,0.03,0.05,0.05,0.07,0.08c0.35,0.36,0.69,0.74,1.02,1.12
	c0.03,0.04,0.06,0.07,0.09,0.11c0.32,0.37,0.62,0.75,0.92,1.13c0.04,0.05,0.08,0.11,0.12,0.16c0.31,0.41,0.61,0.82,0.9,1.24
	c0.3,0.45,0.58,0.89,0.84,1.35c0.02,0.03,0.03,0.06,0.05,0.09c0.25,0.43,0.48,0.86,0.7,1.3c0.01,0.02,0.02,0.04,0.03,0.06
	c0.22,0.45,0.42,0.89,0.6,1.34c0.01,0.02,0.02,0.04,0.03,0.06c0.18,0.45,0.34,0.9,0.49,1.36c0.01,0.03,0.02,0.05,0.03,0.08
	c0.14,0.45,0.27,0.91,0.38,1.37c0.01,0.03,0.02,0.06,0.02,0.1c0.11,0.46,0.2,0.93,0.27,1.4c0,0.02,0.01,0.04,0.01,0.06
	c0.07,0.46,0.12,0.92,0.16,1.39c0,0.04,0.01,0.08,0.01,0.11c0.03,0.48,0.05,0.97,0.05,1.46c0,0.29-0.01,0.57-0.03,0.83
	c0,0.06-0.01,0.12-0.01,0.17c-0.02,0.26-0.04,0.51-0.07,0.75c0,0.03-0.01,0.05-0.01,0.08c-0.03,0.22-0.07,0.44-0.11,0.64
	c-0.01,0.04-0.01,0.07-0.02,0.11c-0.05,0.21-0.1,0.42-0.16,0.61c-0.01,0.05-0.03,0.09-0.05,0.14c-0.05,0.15-0.11,0.3-0.17,0.44
	c-0.02,0.05-0.04,0.1-0.06,0.15c-0.05,0.12-0.11,0.23-0.17,0.33c-0.04,0.07-0.07,0.14-0.11,0.21c-0.07,0.11-0.15,0.21-0.22,0.31
	c-0.04,0.05-0.07,0.11-0.11,0.15c-0.12,0.14-0.25,0.28-0.38,0.4c-0.25,0.22-0.52,0.42-0.81,0.59l5.95-3.46
	c0.29-0.17,0.56-0.37,0.81-0.59c0.14-0.12,0.26-0.25,0.38-0.4c0.04-0.05,0.07-0.1,0.11-0.15c0.07-0.09,0.14-0.18,0.2-0.27
	c0.01-0.01,0.01-0.03,0.02-0.04c0.04-0.07,0.08-0.14,0.12-0.21c0.05-0.09,0.1-0.17,0.14-0.26c0.01-0.02,0.02-0.05,0.03-0.07
	c0.02-0.05,0.04-0.1,0.06-0.15c0.03-0.08,0.07-0.15,0.1-0.23c0.02-0.07,0.05-0.14,0.07-0.21c0.02-0.05,0.03-0.09,0.05-0.14
	c0.01-0.03,0.02-0.06,0.03-0.09c0.04-0.14,0.08-0.29,0.12-0.45c0.01-0.02,0.01-0.05,0.01-0.07c0.01-0.04,0.01-0.07,0.02-0.11
	c0.02-0.09,0.04-0.19,0.06-0.28c0.02-0.12,0.04-0.24,0.05-0.36c0-0.03,0.01-0.05,0.01-0.08c0-0.01,0-0.03,0.01-0.04
	c0.02-0.17,0.04-0.34,0.05-0.52c0.01-0.06,0.01-0.13,0.01-0.19c0-0.06,0.01-0.12,0.01-0.17c0-0.07,0.01-0.13,0.01-0.19
	c0.01-0.2,0.01-0.4,0.01-0.6c0-0.01,0-0.02,0-0.04C307.2,120.91,307.19,120.7,307.19,120.48z"/>
<g>
	<path class="st27" d="M287.75,104.07c4.12,2.38,7.4,5.38,9.84,9c2.44,3.62,3.66,7.46,3.65,11.52c-0.01,2.57-0.57,4.35-1.7,5.34
		c-1.12,1.01-2.68,1.47-4.68,1.39l0,0.27c2.19,2.03,3.93,4.39,5.22,7.07c1.29,2.68,1.93,5.49,1.92,8.42
		c-0.01,2.7-0.61,4.71-1.81,6.02c-1.21,1.31-2.86,1.9-4.98,1.72c-2.12-0.16-4.55-1.03-7.3-2.62c-4.63-2.67-8.19-5.98-10.69-9.93
		c-2.5-3.95-3.75-8.06-3.73-12.34l0-1.22l8.17,4.72l0,1.42c-0.01,1.99,0.52,3.81,1.57,5.48c1.06,1.67,2.58,3.09,4.58,4.24
		c1.81,1.04,3.24,1.34,4.3,0.89c1.06-0.45,1.59-1.73,1.6-3.85c0.01-2.48-0.58-4.55-1.75-6.22c-1.17-1.67-2.74-3.07-4.71-4.21
		l-3-1.73l0.02-7.57l3.17,1.83c1.61,0.93,2.92,1.13,3.95,0.62c1.02-0.51,1.54-1.83,1.54-3.94c0.01-1.94-0.43-3.63-1.31-5.1
		c-0.88-1.46-2.12-2.64-3.73-3.58c-1.69-0.97-3-1.24-3.94-0.82c-0.94,0.43-1.42,1.59-1.42,3.48l0,1.28l-8.17-4.72l0.01-1.89
		c0.01-2.52,0.58-4.42,1.72-5.67c1.14-1.26,2.72-1.84,4.75-1.72C282.87,101.78,285.17,102.58,287.75,104.07z"/>
</g>
<g>
	<polygon class="st28" points="316.41,158.59 316.38,167.85 308.26,163.16 308.29,153.9 	"/>
</g>
<g>
	<polygon class="st29" points="316.41,158.59 322.36,155.13 322.33,164.39 316.38,167.85 	"/>
</g>
<g>
	<polygon class="st30" points="308.29,153.9 314.24,150.45 322.36,155.13 316.41,158.59 	"/>
</g>
<g>
	<polygon class="st31" points="332.75,168.03 332.73,177.28 324.61,172.6 324.64,163.34 	"/>
</g>
<g>
	<polygon class="st1" points="332.75,168.03 338.7,164.57 338.68,173.83 332.73,177.28 	"/>
</g>
<g>
	<polygon class="st32" points="324.64,163.34 330.59,159.89 338.7,164.57 332.75,168.03 	"/>
</g>
<g>
	<polygon class="st33" points="349.1,177.47 349.08,186.72 340.96,182.04 340.99,172.78 	"/>
</g>
<g>
	<polygon class="st34" points="349.1,177.47 355.05,174.01 355.03,183.27 349.08,186.72 	"/>
</g>
<g>
	<polygon class="st35" points="340.99,172.78 346.94,169.33 355.05,174.01 349.1,177.47 	"/>
</g>
<g>
	<path class="st0" d="M151.84,217.93l4.21-2.41l3.76,1.83l-3.6,2.85c0,0-2.02,0.62-2.87,0
		C152.49,219.59,151.84,217.93,151.84,217.93z"/>
	<g>
		<g class="st11">
			<g>
				<polygon class="st0" points="248.13,160.84 152.49,216.42 80.22,174.7 175.86,119.12 				"/>
			</g>
			<g>
				<polygon class="st0" points="248.13,160.84 248.13,162.29 152.49,217.87 152.49,216.42 				"/>
			</g>
			<g>
				<polygon class="st0" points="152.49,216.42 152.49,217.87 80.22,176.14 80.22,174.7 				"/>
			</g>
		</g>
		<g class="st11">
			<g>
				<polygon class="st0" points="323.98,204.63 228.34,260.21 156.07,218.49 251.71,162.91 				"/>
			</g>
			<g>
				<polygon class="st0" points="323.98,204.63 323.97,206.08 228.33,261.66 228.34,260.21 				"/>
			</g>
			<g>
				<polygon class="st0" points="228.34,260.21 228.33,261.66 156.06,219.93 156.07,218.49 				"/>
			</g>
		</g>
	</g>
	<path class="st0" d="M87.47,176.27L180,122.52c0,0,30.39,15.21,47.87,20.6c13.25,4.09,18.54,10.86,21.13,19.44
		c-7.83,4.51-92.21,54.01-92.21,54.01L87.47,176.27z"/>
	<path class="st0" d="M249,162.56c-0.97-3.2-2.31-6.15-4.3-8.8l-97.39,57.3l9.48,5.51C156.79,216.58,241.17,167.08,249,162.56z"/>
	<path class="st0" d="M316.42,204.36c0,0-0.14-0.69-0.37-1.76c-6.33-3.4-26.79-13.99-49.81-35.31c-8.47-7.85-16.81-5.79-19.79-3.32
		l-89.68,52.61l69.78,39.37L316.42,204.36z"/>
	<path class="st0" d="M156.79,216.58c3.8-2.23,11.31-4.53,19.79,3.32c23.01,21.32,43.47,31.91,49.81,35.31
		c0.23,1.07,0.37,1.76,0.37,1.76L156.79,216.58z"/>
	<path class="st0" d="M316.42,204.36c0,0-0.14-0.69-0.37-1.76c-6.33-3.4-31.23-18.74-48.4-36c-8.14-8.19-18.22-5.1-21.19-2.63
		l-89.68,52.61l69.78,39.37L316.42,204.36z"/>
	<path class="st0" d="M156.45,216.58c3.8-2.23,11.31-4.53,19.79,3.32c23.01,21.32,43.47,31.91,49.81,35.31
		c0.23,1.07,0.37,1.76,0.37,1.76L156.45,216.58z"/>
	<path class="st0" d="M156.45,216.58c0.03-4.4-1.73-12.06-12.77-15.48c-29.97-9.27-49.37-21.69-55.48-25.48
		c-1.04,0.34-1.71,0.56-1.71,0.56L156.45,216.58z"/>
	<polygon class="st0" points="226.38,255.2 315.99,202.57 317.65,203.71 226.75,256.96 	"/>
	<path class="st0" d="M154.94,221.06c-0.25,0-0.51-0.03-0.77-0.1c-1.22-0.33-2.6-1.54-2.84-3.97l1.02-0.1
		c0.19,1.9,1.21,2.84,2.1,3.08c0.72,0.19,1.41-0.02,1.8-0.56l0.83,0.6C156.57,220.69,155.79,221.06,154.94,221.06z"/>
</g>
<path class="st36" d="M151.84,215.98l4.21-2.41l3.76,1.83l-3.6,2.85c0,0-2.02,0.62-2.87,0
	C152.49,217.64,151.84,215.98,151.84,215.98z"/>
<g>
	<polygon class="st1" points="248.13,158.89 152.49,214.47 80.22,172.75 175.86,117.17 	"/>
</g>
<g>
	<polygon class="st37" points="248.13,158.89 248.13,160.34 152.49,215.92 152.49,214.47 	"/>
</g>
<g>
	<polygon class="st37" points="152.49,214.47 152.49,215.92 80.22,174.19 80.22,172.75 	"/>
</g>
<g class="st11">
	<g>
		<polygon class="st1" points="323.98,202.68 228.34,258.26 156.07,216.53 251.71,160.95 		"/>
	</g>
	<g>
		<polygon class="st1" points="323.98,202.68 323.97,204.13 228.33,259.71 228.34,258.26 		"/>
	</g>
	<g>
		<polygon class="st1" points="228.34,258.26 228.33,259.71 156.06,217.98 156.07,216.53 		"/>
	</g>
</g>
<path class="st38" d="M87.47,174.31L180,120.57c0,0,30.39,15.21,47.87,20.6c13.25,4.09,18.54,10.86,21.13,19.44
	c-7.83,4.51-92.21,54.01-92.21,54.01L87.47,174.31z"/>
<path class="st39" d="M249,160.61c-0.97-3.2-2.31-6.15-4.3-8.8l-97.39,57.3l9.48,5.51C156.79,214.62,241.17,165.13,249,160.61z"/>
<path class="st40" d="M316.42,202.4c0,0-0.14-0.69-0.37-1.76c-6.33-3.4-26.79-13.99-49.81-35.31c-8.47-7.85-16.81-5.79-19.79-3.32
	l-89.68,52.61l69.78,39.37L316.42,202.4z"/>
<path class="st41" d="M156.79,214.62c3.8-2.23,11.31-4.53,19.79,3.32c23.01,21.32,43.47,31.91,49.81,35.31
	c0.23,1.07,0.37,1.76,0.37,1.76L156.79,214.62z"/>
<path class="st38" d="M316.42,202.4c0,0-0.14-0.69-0.37-1.76c-6.33-3.4-31.23-18.74-48.4-36c-8.14-8.19-18.22-5.1-21.19-2.63
	l-89.68,52.61l69.78,39.37L316.42,202.4z"/>
<path class="st42" d="M256.24,168.97c1.45,2.31-12.95,13.93-32.15,25.95s-35.95,19.88-37.4,17.57
	c-1.45-2.32,12.95-13.93,32.15-25.95S254.79,166.66,256.24,168.97z"/>
<path class="st42" d="M224.17,148.05c1.45,2.32-12.95,13.93-32.15,25.95s-35.95,19.88-37.4,17.57
	c-1.45-2.32,12.95-13.93,32.15-25.95S222.72,145.73,224.17,148.05z"/>
<path class="st39" d="M156.45,214.62c3.8-2.23,11.31-4.53,19.79,3.32c23.01,21.32,43.47,31.91,49.81,35.31
	c0.23,1.07,0.37,1.76,0.37,1.76L156.45,214.62z"/>
<path class="st39" d="M156.45,214.62c0.03-4.4-1.73-12.06-12.77-15.48c-29.97-9.27-49.37-21.69-55.48-25.48
	c-1.04,0.34-1.71,0.56-1.71,0.56L156.45,214.62z"/>
<polygon class="st39" points="226.38,253.25 315.99,200.62 317.65,201.76 226.75,255.01 "/>
<path class="st37" d="M154.94,219.11c-0.25,0-0.51-0.03-0.77-0.1c-1.22-0.33-2.6-1.54-2.84-3.97l1.02-0.1
	c0.19,1.9,1.21,2.84,2.1,3.08c0.72,0.19,1.41-0.02,1.8-0.56l0.83,0.6C156.57,218.74,155.79,219.11,154.94,219.11z"/>
<path class="st0" d="M210.51,269.16l-51.09-29.5c-2.58-1.49-6.76-1.49-9.32,0L78.63,281.2c-1.28,0.74-1.92,1.72-1.91,2.69
	c0,0,0-0.01,0-0.01v0c0,0,0,0,0,0l-0.01,3.81c0,0.98,0.65,1.97,1.95,2.72l51.09,29.5c0.3,0.17,0.61,0.32,0.95,0.45v-0.01l0,0v0.01
	c0.02,0.01,0.04,0.01,0.05,0.02c0.05,0.02,0.11,0.04,0.16,0.06c0.19,0.07,0.38,0.14,0.58,0.2c0.11,0.03,0.22,0.05,0.33,0.08
	c0.06,0.02,0.12,0.03,0.19,0.05c0.06,0.01,0.11,0.03,0.17,0.04c0.21,0.04,0.43,0.08,0.65,0.11c0.08,0.01,0.16,0.02,0.24,0.03
	c0.06,0.01,0.11,0.01,0.17,0.02c0.08,0.01,0.16,0.02,0.24,0.03c0.22,0.02,0.43,0.03,0.65,0.03c0.07,0,0.14,0,0.2,0
	c0.06,0,0.12,0,0.18,0c0.1,0,0.2,0,0.3,0c0.25-0.01,0.49-0.02,0.73-0.05c0.03,0,0.05-0.01,0.08-0.01c0.07-0.01,0.13-0.02,0.19-0.03
	c0.19-0.02,0.38-0.05,0.57-0.08c0.08-0.01,0.16-0.04,0.24-0.06c0.23-0.05,0.44-0.1,0.66-0.16c0.12-0.03,0.24-0.05,0.35-0.09
	c0.09-0.03,0.18-0.07,0.27-0.1c0.09-0.03,0.17-0.06,0.26-0.1c0.32-0.13,0.63-0.27,0.92-0.44l71.47-41.54
	c0.03-0.02,0.05-0.03,0.08-0.05c0.06-0.04,0.11-0.08,0.17-0.11c0.08-0.05,0.16-0.1,0.24-0.16c0.07-0.05,0.12-0.1,0.19-0.15
	c0.07-0.05,0.14-0.11,0.2-0.17c0.01-0.01,0.03-0.02,0.04-0.03c0.03-0.02,0.04-0.05,0.07-0.07c0.1-0.1,0.2-0.2,0.28-0.3
	c0.02-0.02,0.04-0.04,0.06-0.07c0.02-0.02,0.03-0.04,0.05-0.07c0.06-0.08,0.11-0.15,0.15-0.23c0.02-0.03,0.05-0.06,0.06-0.1
	c0.01-0.02,0.01-0.03,0.02-0.05c0.04-0.07,0.07-0.14,0.1-0.21c0.02-0.04,0.04-0.08,0.06-0.12c0.01-0.01,0.01-0.03,0.01-0.04
	c0.02-0.06,0.04-0.13,0.06-0.2c0.01-0.04,0.03-0.09,0.04-0.13c0-0.01,0-0.02,0-0.04c0.01-0.07,0.02-0.14,0.02-0.21
	c0-0.05,0.01-0.09,0.01-0.13c0-0.02,0-0.04,0-0.06l0.01-3.81c0,0.06-0.01,0.12-0.02,0.18C212.53,271.02,211.89,269.96,210.51,269.16
	z M211.09,274.18c0.04-0.03,0.08-0.06,0.12-0.1c0,0,0,0-0.01,0C211.17,274.12,211.13,274.15,211.09,274.18z M211.5,273.84
	c0.01-0.01,0.01-0.01,0.02-0.02c0,0,0,0,0,0C211.51,273.83,211.51,273.83,211.5,273.84z M211.82,273.49
	c0.03-0.04,0.06-0.07,0.09-0.11c0,0,0,0,0,0C211.88,273.42,211.85,273.46,211.82,273.49z M212.07,273.15
	c0.03-0.05,0.06-0.09,0.08-0.14c0,0,0,0,0,0.01C212.12,273.06,212.09,273.1,212.07,273.15z M212.25,272.79
	c0.02-0.05,0.04-0.1,0.06-0.15c0,0,0,0.01,0,0.01C212.3,272.69,212.27,272.74,212.25,272.79z M212.37,272.43
	c0.01-0.05,0.03-0.11,0.04-0.16c0,0,0,0.01,0,0.01C212.4,272.33,212.39,272.38,212.37,272.43z M200.69,271.25
	C200.69,271.25,200.69,271.25,200.69,271.25c0.01,0.01,0.01,0.02,0.02,0.03C200.7,271.28,200.7,271.27,200.69,271.25z M200.61,271.1
	c-0.05-0.08-0.13-0.14-0.2-0.22c0,0-0.01-0.01-0.01-0.01C200.48,270.95,200.55,271.02,200.61,271.1L200.61,271.1z M135.96,255.35
	c-0.01,0.01-0.01,0.02-0.02,0.03c0,0,0,0,0,0C135.95,255.37,135.95,255.36,135.96,255.35C135.96,255.35,135.96,255.35,135.96,255.35
	z M200.29,270.75L200.29,270.75c-0.11-0.09-0.24-0.18-0.37-0.26c-0.03-0.02-0.04-0.03-0.07-0.05
	C200.02,270.54,200.17,270.64,200.29,270.75z M136.27,255.01L136.27,255.01C136.27,255.01,136.27,255.01,136.27,255.01
	C136.27,255.01,136.27,255.01,136.27,255.01z M135.77,255.72L135.77,255.72C135.77,255.72,135.77,255.72,135.77,255.72
	C135.77,255.72,135.77,255.72,135.77,255.72z M76.79,284.46c0.01,0.05,0.02,0.11,0.04,0.16C76.82,284.56,76.81,284.51,76.79,284.46z
	 M76.73,284.09c0.01,0.06,0.01,0.11,0.01,0.17C76.74,284.2,76.74,284.14,76.73,284.09z M76.92,284.82c0.02,0.05,0.04,0.11,0.07,0.16
	c0,0,0,0,0-0.01C76.96,284.92,76.94,284.87,76.92,284.82z M77.36,285.53c0.04,0.05,0.07,0.09,0.11,0.14
	C77.43,285.62,77.4,285.57,77.36,285.53z M77.1,285.17c0.03,0.05,0.06,0.11,0.1,0.16C77.16,285.28,77.14,285.22,77.1,285.17z
	 M78.2,286.31c-0.05-0.03-0.09-0.07-0.14-0.11C78.11,286.23,78.15,286.27,78.2,286.31z M77.81,285.99
	c-0.04-0.04-0.08-0.08-0.12-0.12C77.73,285.91,77.76,285.96,77.81,285.99z M210.8,274.39C210.79,274.39,210.79,274.39,210.8,274.39
	c-0.09,0.06-0.17,0.11-0.26,0.17C210.63,274.5,210.71,274.45,210.8,274.39z"/>
<g>
	<g class="st11">
		<g class="st11">
			<defs>
				<path id="SVGID_00000137118121118137992020000003040768452952549548_" class="st11" d="M157,247.57c-1.34-0.78-3.51-0.78-4.84,0
					l0.01-3.81c1.33-0.78,3.5-0.78,4.84,0C157.01,244.9,157.01,246.42,157,247.57z"/>
			</defs>
			<clipPath id="SVGID_00000149360051565703230780000013133265718452309173_">
				<use xlink:href="#SVGID_00000137118121118137992020000003040768452952549548_"  style="overflow:visible;"/>
			</clipPath>
			<g style="clip-path:url(#SVGID_00000149360051565703230780000013133265718452309173_);enable-background:new    ;">
				<path class="st44" d="M157.01,243.76l-0.01,3.81c-0.16-0.09-0.32-0.17-0.5-0.24l0.01-3.81
					C156.69,243.59,156.86,243.67,157.01,243.76"/>
				<path class="st45" d="M156.52,243.52l-0.01,3.81c-0.13-0.05-0.27-0.1-0.42-0.14l0.01-3.81
					C156.25,243.42,156.38,243.47,156.52,243.52"/>
				<path class="st46" d="M156.1,243.38l-0.01,3.81c-0.12-0.03-0.24-0.06-0.36-0.09l0.01-3.81
					C155.87,243.32,155.99,243.34,156.1,243.38"/>
				<path class="st47" d="M155.75,243.29l-0.01,3.81c-0.11-0.02-0.22-0.04-0.34-0.06l0.01-3.81
					C155.52,243.25,155.63,243.27,155.75,243.29"/>
				<path class="st48" d="M155.41,243.23l-0.01,3.81c-0.11-0.02-0.22-0.03-0.33-0.04l0.01-3.81
					C155.19,243.2,155.3,243.22,155.41,243.23"/>
				<path class="st49" d="M155.07,243.19l-0.01,3.81c-0.11-0.01-0.22-0.02-0.34-0.02l0.01-3.81
					C154.85,243.18,154.96,243.19,155.07,243.19"/>
				<path class="st50" d="M154.74,243.18l-0.01,3.81c-0.12,0-0.23,0-0.35,0l0.01-3.81C154.5,243.17,154.62,243.17,154.74,243.18"/>
				<path class="st51" d="M154.39,243.18l-0.01,3.81c-0.13,0-0.25,0.01-0.38,0.03l0.01-3.81
					C154.13,243.19,154.26,243.18,154.39,243.18"/>
				<path class="st52" d="M154.01,243.2l-0.01,3.81c-0.15,0.01-0.29,0.03-0.44,0.06l0.01-3.81
					C153.71,243.24,153.86,243.22,154.01,243.2"/>
				<path class="st53" d="M153.57,243.26l-0.01,3.81c-0.22,0.04-0.44,0.09-0.65,0.16l0.01-3.81
					C153.13,243.36,153.35,243.3,153.57,243.26"/>
				<path class="st54" d="M152.92,243.43l-0.01,3.81c-0.27,0.09-0.52,0.2-0.75,0.33l0.01-3.81
					C152.4,243.62,152.65,243.51,152.92,243.43"/>
			</g>
		</g>
		<g>
			<polygon class="st55" points="152.17,243.76 152.16,247.57 136.69,256.56 136.7,252.75 			"/>
		</g>
		<g class="st11">
			<defs>
				<path id="SVGID_00000118383608420165937620000015703925257694036369_" class="st11" d="M136.69,256.56
					c-0.66,0.38-0.99,0.89-0.99,1.39l0.01-3.81c0-0.51,0.33-1.01,0.99-1.39C136.7,253.89,136.7,255.41,136.69,256.56z"/>
			</defs>
			<clipPath id="SVGID_00000134947102537015132040000016441244979781157770_">
				<use xlink:href="#SVGID_00000118383608420165937620000015703925257694036369_"  style="overflow:visible;"/>
			</clipPath>
			<g style="clip-path:url(#SVGID_00000134947102537015132040000016441244979781157770_);enable-background:new    ;">
				<path class="st54" d="M136.7,252.75l-0.01,3.81c-0.01,0.01-0.03,0.02-0.04,0.02l0.01-3.81
					C136.68,252.76,136.69,252.75,136.7,252.75"/>
				<path class="st53" d="M136.66,252.77l-0.01,3.81c-0.17,0.1-0.31,0.21-0.43,0.32l0.01-3.81
					C136.35,252.98,136.5,252.87,136.66,252.77"/>
				<path class="st52" d="M136.23,253.09l-0.01,3.81c-0.08,0.07-0.15,0.15-0.21,0.23l0.01-3.81
					C136.08,253.24,136.15,253.16,136.23,253.09"/>
				<path class="st51" d="M136.02,253.32l-0.01,3.81c-0.05,0.07-0.1,0.14-0.14,0.2l0.01-3.81
					C135.92,253.45,135.96,253.39,136.02,253.32"/>
				<path class="st50" d="M135.88,253.52l-0.01,3.81c-0.04,0.06-0.07,0.13-0.09,0.2l0.01-3.81
					C135.81,253.65,135.84,253.59,135.88,253.52"/>
				<path class="st49" d="M135.79,253.72l-0.01,3.81c-0.02,0.06-0.04,0.13-0.06,0.19l0.01-3.81
					C135.74,253.85,135.76,253.78,135.79,253.72"/>
				<path class="st48" d="M135.73,253.91l-0.01,3.81c-0.01,0.07-0.02,0.13-0.02,0.2l0.01-3.81
					C135.71,254.04,135.72,253.98,135.73,253.91"/>
				<path class="st47" d="M135.71,254.11l-0.01,3.81c0,0.01,0,0.02,0,0.03l0.01-3.81C135.71,254.13,135.71,254.12,135.71,254.11"/>
			</g>
		</g>
		<g class="st11">
			<defs>
				<path id="SVGID_00000130614156145892830890000003347130219766165672_" class="st11" d="M135.7,257.95l0.01-3.81
					c0,0.51,0.33,1.02,1.01,1.41l-0.01,3.81C136.03,258.97,135.7,258.46,135.7,257.95z"/>
			</defs>
			<clipPath id="SVGID_00000088097049274470811810000004618545788267283598_">
				<use xlink:href="#SVGID_00000130614156145892830890000003347130219766165672_"  style="overflow:visible;"/>
			</clipPath>
			<g style="clip-path:url(#SVGID_00000088097049274470811810000004618545788267283598_);enable-background:new    ;">
				<path class="st58" d="M136.72,255.55l-0.01,3.81c-0.68-0.39-1.01-0.9-1.01-1.41l0.01-3.81
					C135.71,254.65,136.04,255.16,136.72,255.55"/>
			</g>
		</g>
		<g>
			<polygon class="st59" points="199.85,268.49 199.84,272.3 157,247.57 157.01,243.76 			"/>
		</g>
		<g class="st11">
			<defs>
				<path id="SVGID_00000060745961521086972340000010025276005852116644_" class="st11" d="M200.85,273.71
					c0-0.51-0.34-1.02-1.01-1.41c0-1.12,0.01-2.24,0.01-3.37l0-0.45c0.68,0.39,1.01,0.9,1.01,1.41
					C200.86,271.04,200.86,272.57,200.85,273.71z"/>
			</defs>
			<clipPath id="SVGID_00000077296552191001569970000010771819647543364796_">
				<use xlink:href="#SVGID_00000060745961521086972340000010025276005852116644_"  style="overflow:visible;"/>
			</clipPath>
			<g style="clip-path:url(#SVGID_00000077296552191001569970000010771819647543364796_);enable-background:new    ;">
				<path class="st44" d="M200.86,269.9l-0.01,3.81c0-0.51-0.34-1.02-1.01-1.41l0.01-3.81C200.53,268.88,200.87,269.39,200.86,269.9
					"/>
			</g>
		</g>
		<g class="st11">
			<defs>
				<path id="SVGID_00000079466773002879118690000003330809054269200784_" class="st11" d="M200.86,269.9l-0.01,3.81
					c0,0.5-0.33,1.01-1,1.39l0.01-3.81C200.53,270.91,200.86,270.41,200.86,269.9z"/>
			</defs>
			<clipPath id="SVGID_00000116915161603449960190000005515394508030429322_">
				<use xlink:href="#SVGID_00000079466773002879118690000003330809054269200784_"  style="overflow:visible;"/>
			</clipPath>
			<g style="clip-path:url(#SVGID_00000116915161603449960190000005515394508030429322_);enable-background:new    ;">
				<path class="st62" d="M200.86,269.9l-0.01,3.81c0,0.01,0,0.02,0,0.03l0.01-3.81C200.86,269.92,200.86,269.91,200.86,269.9"/>
				<path class="st63" d="M200.86,269.93l-0.01,3.81c0,0.07-0.01,0.13-0.02,0.2l0.01-3.81C200.85,270.06,200.86,270,200.86,269.93"
					/>
				<path class="st64" d="M200.84,270.13l-0.01,3.81c-0.01,0.06-0.03,0.13-0.06,0.19l0.01-3.81
					C200.81,270.26,200.83,270.19,200.84,270.13"/>
				<path class="st65" d="M200.79,270.32l-0.01,3.81c-0.02,0.07-0.05,0.13-0.09,0.19l0.01-3.81
					C200.73,270.45,200.76,270.39,200.79,270.32"/>
				<path class="st66" d="M200.7,270.51l-0.01,3.81c-0.04,0.07-0.09,0.14-0.14,0.2l0.01-3.81
					C200.61,270.65,200.66,270.58,200.7,270.51"/>
				<path class="st67" d="M200.56,270.72l-0.01,3.81c-0.06,0.08-0.13,0.15-0.21,0.23l0.01-3.81
					C200.43,270.87,200.5,270.8,200.56,270.72"/>
				<path class="st68" d="M200.35,270.95l-0.01,3.81c-0.12,0.11-0.27,0.22-0.43,0.32l0.01-3.81
					C200.08,271.17,200.22,271.06,200.35,270.95"/>
				<path class="st69" d="M199.91,271.27l-0.01,3.81c-0.01,0.01-0.03,0.02-0.04,0.02l0.01-3.81
					C199.88,271.29,199.9,271.28,199.91,271.27"/>
			</g>
		</g>
		<path class="st54" d="M212.44,270.12c-0.01,0.07-0.01,0.14-0.02,0.21c-0.01,0.06-0.03,0.11-0.04,0.17
			c-0.02,0.07-0.03,0.13-0.06,0.2c-0.02,0.05-0.04,0.11-0.07,0.16c-0.03,0.07-0.06,0.14-0.1,0.21c-0.03,0.05-0.06,0.1-0.09,0.15
			c-0.05,0.08-0.1,0.15-0.16,0.23c-0.03,0.04-0.07,0.09-0.11,0.13c-0.08,0.1-0.18,0.2-0.28,0.3c-0.04,0.04-0.07,0.07-0.11,0.11
			c-0.06,0.06-0.13,0.11-0.2,0.17c-0.06,0.05-0.12,0.1-0.18,0.15c-0.07,0.05-0.16,0.11-0.24,0.16c-0.08,0.05-0.16,0.11-0.25,0.16
			l-0.01,3.81c0.03-0.02,0.05-0.03,0.08-0.05c0.06-0.04,0.11-0.08,0.17-0.11c0.08-0.05,0.16-0.1,0.24-0.16
			c0.07-0.05,0.12-0.1,0.18-0.15c0.07-0.06,0.14-0.11,0.2-0.17c0.01-0.01,0.03-0.02,0.04-0.03c0.03-0.02,0.04-0.05,0.07-0.07
			c0.1-0.1,0.2-0.2,0.28-0.3c0.02-0.02,0.04-0.04,0.06-0.07c0.02-0.02,0.03-0.05,0.05-0.07c0.06-0.08,0.11-0.15,0.16-0.23
			c0.02-0.03,0.05-0.06,0.06-0.1c0.01-0.02,0.01-0.03,0.02-0.05c0.04-0.07,0.07-0.14,0.1-0.21c0.02-0.04,0.04-0.08,0.06-0.12
			c0.01-0.01,0.01-0.03,0.01-0.04c0.02-0.07,0.04-0.13,0.06-0.2c0.01-0.04,0.03-0.09,0.04-0.13c0-0.01,0-0.02,0-0.04
			c0.01-0.07,0.02-0.14,0.02-0.21c0-0.04,0.01-0.09,0.02-0.13c0-0.02,0-0.04,0-0.06l0.01-3.81
			C212.45,269.99,212.44,270.05,212.44,270.12z"/>
		<g>
			<polygon class="st70" points="199.87,271.29 199.86,275.11 184.39,284.09 184.4,280.28 			"/>
		</g>
		<g>
			<polygon class="st71" points="179.56,280.28 179.55,284.09 136.71,259.36 136.72,255.55 			"/>
		</g>
		<g class="st11">
			<defs>
				<path id="SVGID_00000156573831846373198500000005476898758122268847_" class="st11" d="M184.4,280.28l-0.01,3.81
					c-1.33,0.77-3.5,0.78-4.84,0l0.01-3.81C180.9,281.06,183.07,281.06,184.4,280.28z"/>
			</defs>
			<clipPath id="SVGID_00000069378099642706774620000009520763502310030732_">
				<use xlink:href="#SVGID_00000156573831846373198500000005476898758122268847_"  style="overflow:visible;"/>
			</clipPath>
			<g style="clip-path:url(#SVGID_00000069378099642706774620000009520763502310030732_);enable-background:new    ;">
				<path class="st69" d="M184.4,280.28l-0.01,3.81c-0.23,0.13-0.48,0.24-0.75,0.33l0.01-3.81
					C183.92,280.53,184.17,280.42,184.4,280.28"/>
				<path class="st68" d="M183.65,280.61l-0.01,3.81c-0.21,0.07-0.43,0.12-0.65,0.16l0.01-3.81
					C183.23,280.73,183.44,280.68,183.65,280.61"/>
				<path class="st67" d="M183,280.77l-0.01,3.81c-0.14,0.03-0.29,0.05-0.44,0.06l0.01-3.81C182.71,280.82,182.86,280.8,183,280.77"
					/>
				<path class="st66" d="M182.57,280.83l-0.01,3.81c-0.13,0.01-0.25,0.02-0.38,0.03l0.01-3.81
					C182.31,280.86,182.44,280.85,182.57,280.83"/>
				<path class="st65" d="M182.18,280.86l-0.01,3.81c-0.12,0-0.23,0-0.35,0l0.01-3.81C181.95,280.86,182.07,280.86,182.18,280.86"/>
				<path class="st64" d="M181.83,280.86l-0.01,3.81c-0.11,0-0.23-0.01-0.34-0.02l0.01-3.81
					C181.61,280.85,181.72,280.86,181.83,280.86"/>
				<path class="st63" d="M181.5,280.84l-0.01,3.81c-0.11-0.01-0.22-0.02-0.33-0.04l0.01-3.81
					C181.27,280.82,181.38,280.83,181.5,280.84"/>
				<path class="st62" d="M181.16,280.81l-0.01,3.81c-0.11-0.02-0.23-0.04-0.34-0.06l0.01-3.81
					C180.93,280.77,181.05,280.79,181.16,280.81"/>
				<path class="st73" d="M180.82,280.75l-0.01,3.81c-0.12-0.03-0.24-0.05-0.36-0.09l0.01-3.81
					C180.58,280.69,180.7,280.72,180.82,280.75"/>
				<path class="st74" d="M180.47,280.66l-0.01,3.81c-0.14-0.04-0.28-0.09-0.42-0.14l0.01-3.81
					C180.18,280.57,180.32,280.62,180.47,280.66"/>
				<path class="st58" d="M180.05,280.52l-0.01,3.81c-0.17-0.07-0.34-0.15-0.49-0.24l0.01-3.81
					C179.71,280.37,179.88,280.45,180.05,280.52"/>
			</g>
		</g>
		<g>
			<path class="st75" d="M210.51,267.21c2.58,1.49,2.59,3.91,0.03,5.4l-71.47,41.54c-2.56,1.49-6.74,1.49-9.32,0l-51.09-29.5
				c-2.58-1.49-2.59-3.91-0.03-5.4l71.47-41.54c2.56-1.49,6.73-1.49,9.32,0L210.51,267.21z M184.4,280.28l15.47-8.99
				c1.33-0.78,1.33-2.03-0.02-2.81l-42.84-24.73c-1.34-0.78-3.51-0.78-4.84,0l-15.47,8.99c-1.33,0.77-1.33,2.03,0.02,2.81
				l42.84,24.73C180.9,281.06,183.07,281.06,184.4,280.28"/>
		</g>
		<g>
			<path class="st12" d="M199.85,268.49c1.34,0.78,1.35,2.03,0.02,2.81l-15.47,8.99c-1.33,0.77-3.5,0.78-4.84,0l-42.84-24.73
				c-1.34-0.78-1.34-2.03-0.02-2.81l15.47-8.99c1.33-0.78,3.5-0.78,4.84,0L199.85,268.49z"/>
		</g>
		<g>
			<polygon class="st55" points="210.54,272.6 210.53,276.42 139.06,317.95 139.07,314.14 			"/>
		</g>
		<path class="st44" d="M139.06,317.95l0.01-3.81c-0.29,0.17-0.6,0.31-0.92,0.44c-0.08,0.03-0.17,0.07-0.26,0.1
			c-0.2,0.07-0.41,0.13-0.62,0.19c-0.22,0.06-0.43,0.12-0.66,0.16c-0.26,0.05-0.53,0.1-0.8,0.14c-0.07,0.01-0.13,0.02-0.19,0.03
			c-0.37,0.04-0.74,0.06-1.11,0.06c-0.06,0-0.12,0-0.18,0c-0.37,0-0.73-0.02-1.09-0.06c-0.06-0.01-0.11-0.01-0.17-0.02
			c-0.36-0.04-0.71-0.1-1.06-0.18c-0.06-0.01-0.13-0.03-0.19-0.05c-0.31-0.08-0.62-0.17-0.91-0.28c-0.05-0.02-0.11-0.04-0.17-0.06
			c-0.35-0.14-0.69-0.29-1-0.47l-51.09-29.5c-1.3-0.75-1.95-1.73-1.95-2.72l-0.01,3.81c0,0.98,0.65,1.97,1.95,2.72l51.09,29.5
			c0.3,0.17,0.61,0.32,0.95,0.45c0.02,0.01,0.04,0.01,0.05,0.02c0.05,0.02,0.11,0.04,0.16,0.06c0.19,0.07,0.38,0.14,0.58,0.2
			c0.11,0.03,0.22,0.05,0.33,0.08c0.06,0.02,0.12,0.03,0.19,0.05c0.06,0.01,0.11,0.03,0.17,0.04c0.21,0.04,0.43,0.08,0.65,0.11
			c0.08,0.01,0.16,0.02,0.24,0.03c0.05,0.01,0.11,0.01,0.16,0.02c0.08,0.01,0.16,0.02,0.24,0.03c0.22,0.02,0.43,0.03,0.65,0.03
			c0.07,0,0.14,0,0.2,0c0.06,0,0.12,0,0.18,0c0.1,0,0.2,0,0.29,0c0.25-0.01,0.49-0.02,0.73-0.05c0.03,0,0.05-0.01,0.08-0.01
			c0.07-0.01,0.13-0.02,0.19-0.03c0.19-0.02,0.38-0.05,0.57-0.08c0.08-0.01,0.16-0.04,0.24-0.06c0.23-0.05,0.44-0.1,0.66-0.16
			c0.12-0.03,0.24-0.05,0.35-0.09c0.09-0.03,0.18-0.07,0.27-0.1c0.09-0.03,0.17-0.06,0.26-0.1
			C138.46,318.26,138.77,318.12,139.06,317.95z"/>
	</g>
</g>
<path class="st76" d="M143.38,263.58c0,0.01,0,0.02-0.01,0.03c-0.03,0.08-0.07,0.16-0.12,0.24c-0.01,0.01-0.02,0.03-0.03,0.04
	c-0.06,0.08-0.13,0.16-0.21,0.23c-0.05,0.05-0.12,0.09-0.19,0.14c-0.05,0.04-0.1,0.08-0.16,0.11l-0.01,2.29
	c0.01-0.01,0.02-0.01,0.03-0.02c0.05-0.03,0.09-0.06,0.13-0.1c0.06-0.04,0.13-0.09,0.18-0.14c0.01,0,0.01-0.01,0.02-0.01
	c0.06-0.06,0.12-0.11,0.16-0.17c0.01-0.01,0.02-0.03,0.03-0.04c0.01-0.01,0.02-0.03,0.03-0.04c0.02-0.02,0.03-0.05,0.05-0.07
	c0.03-0.05,0.05-0.1,0.07-0.15c0-0.01,0-0.02,0.01-0.02c0-0.01,0.01-0.02,0.01-0.03c0.01-0.03,0.02-0.06,0.03-0.1
	c0.01-0.05,0.02-0.1,0.02-0.15c0-0.01,0-0.02,0-0.02l0.01-2.29C143.43,263.4,143.41,263.49,143.38,263.58z"/>
<g>
	<polygon class="st77" points="142.67,264.38 142.66,266.66 133.06,272.24 133.06,269.96 	"/>
</g>
<g>
	<path class="st1" d="M142.66,262.24c1.02,0.59,1.02,1.54,0.01,2.13l-9.6,5.58c-1.01,0.59-2.66,0.59-3.68,0l-9.66-5.58
		c-1.02-0.59-1.03-1.54-0.02-2.13l9.6-5.58c1.01-0.59,2.67-0.59,3.69,0L142.66,262.24z"/>
</g>
<path class="st78" d="M133.06,269.96c-0.16,0.09-0.33,0.16-0.51,0.23c-0.06,0.02-0.13,0.04-0.2,0.06c-0.09,0.02-0.17,0.05-0.26,0.06
	c-0.1,0.02-0.21,0.04-0.32,0.05c-0.03,0-0.05,0.01-0.08,0.01c-0.14,0.02-0.29,0.02-0.44,0.02c-0.02,0-0.04,0-0.07,0
	c-0.14,0-0.29-0.01-0.43-0.02c-0.02,0-0.04,0-0.06-0.01c-0.14-0.02-0.28-0.04-0.42-0.07c-0.03-0.01-0.05-0.01-0.07-0.02
	c-0.12-0.03-0.24-0.07-0.36-0.11c-0.02-0.01-0.04-0.01-0.07-0.02c-0.14-0.05-0.27-0.12-0.4-0.19l-9.66-5.58
	c-0.52-0.3-0.77-0.69-0.77-1.08l-0.01,2.29c0,0.39,0.26,0.78,0.77,1.08l9.66,5.58c0.12,0.07,0.24,0.13,0.38,0.18
	c0.01,0,0.01,0,0.02,0.01c0.02,0.01,0.04,0.01,0.06,0.02c0.08,0.03,0.15,0.06,0.23,0.08c0.04,0.01,0.09,0.02,0.13,0.03
	c0.03,0.01,0.05,0.01,0.08,0.02c0.02,0.01,0.04,0.01,0.07,0.02c0.08,0.02,0.17,0.03,0.26,0.04c0.03,0,0.06,0.01,0.09,0.01
	c0.02,0,0.04,0.01,0.06,0.01c0.03,0,0.06,0.01,0.1,0.01c0.08,0.01,0.17,0.01,0.26,0.01c0.03,0,0.05,0,0.08,0c0.02,0,0.05,0,0.07,0
	c0.04,0,0.08,0,0.12,0c0.1,0,0.19-0.01,0.29-0.02c0.01,0,0.02,0,0.03,0c0.03,0,0.05-0.01,0.08-0.01c0.07-0.01,0.15-0.02,0.22-0.03
	c0.03-0.01,0.06-0.02,0.09-0.02c0.09-0.02,0.17-0.04,0.26-0.06c0.05-0.01,0.09-0.02,0.14-0.03c0.02-0.01,0.04-0.02,0.06-0.03
	c0.18-0.06,0.36-0.13,0.51-0.23L133.06,269.96z"/>
<path class="st76" d="M160.09,273.23c0,0.01,0,0.02-0.01,0.03c-0.03,0.08-0.07,0.16-0.12,0.24c-0.01,0.01-0.02,0.03-0.03,0.04
	c-0.06,0.08-0.13,0.15-0.21,0.23c-0.05,0.05-0.12,0.09-0.18,0.13c-0.05,0.04-0.1,0.08-0.16,0.12l-0.01,2.29
	c0.01-0.01,0.02-0.01,0.03-0.02c0.05-0.03,0.09-0.07,0.13-0.1c0.06-0.04,0.13-0.09,0.18-0.13c0,0,0.01-0.01,0.02-0.01
	c0.06-0.06,0.11-0.11,0.16-0.17c0.01-0.01,0.02-0.03,0.03-0.04c0.01-0.01,0.02-0.03,0.03-0.04c0.02-0.02,0.03-0.05,0.05-0.07
	c0.03-0.05,0.05-0.1,0.07-0.15c0-0.01,0-0.02,0.01-0.02c0-0.01,0.01-0.02,0.01-0.03c0.01-0.03,0.02-0.06,0.03-0.1
	c0.01-0.05,0.02-0.1,0.02-0.15c0-0.01,0-0.02,0-0.02l0.01-2.29C160.14,273.06,160.12,273.15,160.09,273.23z"/>
<g>
	<polygon class="st77" points="159.38,274.03 159.38,276.31 149.77,281.89 149.78,279.61 	"/>
</g>
<g>
	<path class="st1" d="M159.37,271.89c1.02,0.59,1.03,1.55,0.01,2.14l-9.6,5.58c-1.01,0.59-2.66,0.59-3.68,0l-9.67-5.58
		c-1.02-0.59-1.03-1.54-0.01-2.13l9.6-5.58c1.01-0.59,2.66-0.59,3.68,0L159.37,271.89z"/>
</g>
<path class="st78" d="M149.78,279.61c-0.16,0.09-0.33,0.16-0.51,0.22c-0.06,0.02-0.13,0.04-0.2,0.06c-0.09,0.02-0.17,0.05-0.26,0.06
	c-0.11,0.02-0.21,0.04-0.32,0.05c-0.02,0-0.05,0.01-0.07,0.01c-0.15,0.02-0.29,0.02-0.44,0.02c-0.02,0-0.05,0-0.07,0
	c-0.14,0-0.29-0.01-0.43-0.02c-0.02,0-0.04,0-0.06-0.01c-0.14-0.02-0.28-0.04-0.42-0.07c-0.03-0.01-0.05-0.01-0.07-0.02
	c-0.12-0.03-0.25-0.07-0.36-0.11c-0.02-0.01-0.04-0.01-0.06-0.02c-0.14-0.05-0.27-0.12-0.4-0.19l-9.67-5.58
	c-0.26-0.15-0.45-0.32-0.58-0.5c-0.13-0.18-0.19-0.38-0.19-0.57v0c0,0,0,0,0,0l-0.01,2.29c0,0.39,0.26,0.78,0.77,1.07l9.67,5.58
	c0.12,0.07,0.24,0.13,0.38,0.18c0.01,0,0.01,0,0.02,0.01c0.02,0.01,0.04,0.01,0.06,0.02c0.08,0.03,0.15,0.06,0.24,0.08
	c0.04,0.01,0.08,0.02,0.13,0.03c0.03,0.01,0.05,0.01,0.07,0.02c0.02,0.01,0.05,0.01,0.07,0.02c0.09,0.02,0.17,0.03,0.26,0.05
	c0.03,0,0.06,0.01,0.09,0.01c0.02,0,0.04,0,0.06,0.01c0.03,0,0.07,0.01,0.1,0.01c0.09,0.01,0.17,0.01,0.26,0.01
	c0.03,0,0.05,0,0.08,0c0.02,0,0.05,0,0.07,0c0.04,0,0.08,0,0.12,0c0.1,0,0.19-0.01,0.29-0.02c0.01,0,0.02,0,0.03,0
	c0.02,0,0.05-0.01,0.07-0.01c0.08-0.01,0.15-0.02,0.23-0.03c0.03-0.01,0.06-0.02,0.09-0.02c0.09-0.02,0.17-0.04,0.26-0.06
	c0.05-0.01,0.09-0.02,0.14-0.03c0.02-0.01,0.04-0.02,0.06-0.03c0.18-0.06,0.36-0.13,0.51-0.22L149.78,279.61z"/>
<path class="st76" d="M176.81,282.88c0,0.01,0,0.02-0.01,0.03c-0.03,0.08-0.07,0.16-0.12,0.24c-0.01,0.01-0.02,0.03-0.03,0.04
	c-0.06,0.08-0.13,0.16-0.21,0.23c-0.05,0.05-0.12,0.09-0.19,0.14c-0.05,0.04-0.1,0.08-0.16,0.11l-0.01,2.29
	c0.01-0.01,0.02-0.01,0.03-0.02c0.05-0.03,0.08-0.06,0.13-0.09c0.06-0.05,0.13-0.09,0.19-0.14c0.01,0,0.01-0.01,0.02-0.01
	c0.06-0.06,0.12-0.11,0.16-0.17c0.01-0.01,0.02-0.03,0.03-0.04c0.01-0.01,0.02-0.03,0.03-0.04c0.02-0.02,0.03-0.05,0.05-0.07
	c0.03-0.05,0.05-0.1,0.07-0.15c0-0.01,0-0.02,0.01-0.02c0-0.01,0.01-0.02,0.01-0.03c0.01-0.03,0.02-0.06,0.03-0.1
	c0.01-0.05,0.02-0.1,0.02-0.15c0-0.01,0-0.02,0-0.02l0.01-2.29C176.85,282.7,176.83,282.79,176.81,282.88z"/>
<g>
	<polygon class="st77" points="176.09,283.67 176.08,285.96 166.48,291.54 166.49,289.25 	"/>
</g>
<g>
	<path class="st1" d="M176.08,281.54c1.02,0.59,1.02,1.54,0.01,2.13l-9.6,5.58c-1.01,0.59-2.66,0.59-3.68,0l-9.67-5.58
		c-1.02-0.59-1.03-1.54-0.01-2.13l9.6-5.58c1.01-0.59,2.66-0.59,3.68,0L176.08,281.54z"/>
</g>
<path class="st78" d="M166.49,289.25c-0.16,0.09-0.33,0.16-0.51,0.23c-0.06,0.02-0.13,0.04-0.19,0.06
	c-0.09,0.02-0.17,0.05-0.26,0.07c-0.1,0.02-0.21,0.04-0.31,0.05c-0.03,0-0.05,0.01-0.08,0.01c-0.14,0.02-0.29,0.02-0.44,0.02
	c-0.02,0-0.05,0-0.07,0c-0.14,0-0.29-0.01-0.43-0.02c-0.02,0-0.04,0-0.07-0.01c-0.14-0.02-0.28-0.04-0.42-0.07
	c-0.03-0.01-0.05-0.01-0.08-0.02c-0.12-0.03-0.24-0.07-0.36-0.11c-0.02-0.01-0.04-0.01-0.06-0.02c-0.14-0.05-0.27-0.12-0.4-0.19
	l-9.67-5.58c-0.51-0.3-0.77-0.68-0.77-1.07l-0.01,2.29c0,0.39,0.26,0.78,0.77,1.07l9.67,5.58c0.12,0.07,0.24,0.13,0.38,0.18
	c0.01,0,0.01,0,0.02,0.01c0.02,0.01,0.04,0.01,0.07,0.02c0.08,0.03,0.15,0.06,0.23,0.08c0.04,0.01,0.09,0.02,0.13,0.03
	c0.02,0.01,0.05,0.01,0.07,0.02c0.02,0.01,0.05,0.01,0.07,0.02c0.08,0.02,0.17,0.03,0.26,0.04c0.03,0,0.06,0.01,0.09,0.01
	c0.02,0,0.04,0,0.06,0.01c0.03,0,0.06,0.01,0.1,0.01c0.08,0.01,0.17,0.01,0.26,0.01c0.03,0,0.05,0,0.08,0c0.02,0,0.04,0,0.07,0
	c0.04,0,0.08,0,0.12,0c0.1,0,0.19-0.01,0.29-0.02c0.01,0,0.02,0,0.03,0c0.03,0,0.05-0.01,0.08-0.01c0.07-0.01,0.15-0.02,0.22-0.03
	c0.03-0.01,0.06-0.02,0.09-0.02c0.09-0.02,0.17-0.04,0.26-0.06c0.05-0.01,0.09-0.02,0.14-0.03c0.02-0.01,0.04-0.02,0.06-0.03
	c0.18-0.06,0.36-0.13,0.51-0.23L166.49,289.25z"/>
<path class="st76" d="M128.2,272.41c0,0.01,0,0.02-0.01,0.03c-0.03,0.08-0.07,0.16-0.12,0.24c-0.01,0.01-0.02,0.03-0.03,0.04
	c-0.06,0.08-0.13,0.15-0.21,0.23c-0.05,0.05-0.12,0.09-0.18,0.14c-0.05,0.04-0.1,0.08-0.16,0.11l-0.01,2.29
	c0.01-0.01,0.02-0.01,0.03-0.02c0.05-0.03,0.08-0.06,0.13-0.09c0.06-0.05,0.13-0.09,0.19-0.14c0.01,0,0.01-0.01,0.02-0.01
	c0.06-0.06,0.11-0.11,0.16-0.17c0.01-0.01,0.02-0.03,0.03-0.04c0.01-0.01,0.02-0.03,0.03-0.04c0.02-0.02,0.03-0.05,0.05-0.07
	c0.03-0.05,0.05-0.1,0.07-0.15c0-0.01,0-0.01,0.01-0.02c0-0.01,0.01-0.02,0.01-0.03c0.01-0.03,0.02-0.06,0.03-0.1
	c0.01-0.05,0.02-0.1,0.02-0.15c0-0.01,0-0.02,0-0.02l0.01-2.29C128.25,272.23,128.23,272.32,128.2,272.41z"/>
<g>
	<polygon class="st77" points="127.49,273.2 127.48,275.48 117.88,281.06 117.89,278.78 	"/>
</g>
<g>
	<path class="st1" d="M127.48,271.07c1.02,0.59,1.03,1.54,0.01,2.13l-9.6,5.58c-1.01,0.59-2.66,0.59-3.68,0l-9.66-5.58
		c-1.02-0.59-1.03-1.55-0.01-2.14l9.6-5.58c1.01-0.59,2.66-0.59,3.68,0L127.48,271.07z"/>
</g>
<path class="st78" d="M117.89,278.78c-0.16,0.09-0.33,0.16-0.51,0.23c-0.06,0.02-0.13,0.04-0.19,0.06
	c-0.09,0.02-0.17,0.05-0.26,0.07c-0.1,0.02-0.21,0.04-0.31,0.05c-0.03,0-0.05,0.01-0.08,0.01c-0.14,0.02-0.29,0.02-0.44,0.02
	c-0.02,0-0.05,0-0.07,0c-0.14,0-0.29-0.01-0.43-0.02c-0.02,0-0.04,0-0.07-0.01c-0.14-0.02-0.28-0.04-0.42-0.07
	c-0.02-0.01-0.05-0.01-0.07-0.02c-0.12-0.03-0.25-0.07-0.36-0.11c-0.02-0.01-0.04-0.01-0.06-0.02c-0.14-0.05-0.27-0.12-0.4-0.19
	l-9.66-5.58c-0.51-0.3-0.77-0.69-0.77-1.08l-0.01,2.29c0,0.39,0.26,0.78,0.77,1.08l9.66,5.58c0.12,0.07,0.24,0.13,0.37,0.18
	c0.01,0,0.01,0,0.02,0.01c0.02,0.01,0.04,0.01,0.06,0.02c0.08,0.03,0.15,0.05,0.23,0.08c0.04,0.01,0.09,0.02,0.13,0.03
	c0.02,0.01,0.05,0.01,0.07,0.02c0.02,0,0.04,0.01,0.06,0.02c0.08,0.02,0.17,0.03,0.26,0.04c0.03,0,0.07,0.01,0.1,0.01
	c0.02,0,0.04,0,0.06,0.01c0.03,0,0.06,0.01,0.09,0.01c0.08,0.01,0.17,0.01,0.26,0.01c0.03,0,0.06,0,0.08,0c0.02,0,0.05,0,0.07,0
	c0.04,0,0.07,0,0.11,0c0.1,0,0.19-0.01,0.29-0.02c0.01,0,0.02,0,0.04-0.01c0.03,0,0.05-0.01,0.08-0.01
	c0.07-0.01,0.14-0.02,0.22-0.03c0.03-0.01,0.06-0.02,0.1-0.02c0.09-0.02,0.18-0.04,0.26-0.07c0.04-0.01,0.09-0.02,0.14-0.03
	c0.02-0.01,0.04-0.02,0.06-0.03c0.18-0.06,0.36-0.14,0.51-0.23L117.89,278.78z"/>
<path class="st76" d="M144.91,282.06c0,0.01,0,0.02-0.01,0.03c-0.03,0.08-0.07,0.16-0.12,0.24c-0.01,0.01-0.02,0.03-0.03,0.04
	c-0.06,0.08-0.12,0.15-0.21,0.23c-0.05,0.05-0.12,0.09-0.18,0.14c-0.05,0.04-0.1,0.08-0.16,0.11l-0.01,2.29
	c0.01-0.01,0.02-0.01,0.03-0.02c0.05-0.03,0.08-0.06,0.13-0.1c0.06-0.04,0.13-0.09,0.18-0.13c0,0,0.01-0.01,0.02-0.01
	c0.06-0.06,0.11-0.11,0.16-0.17c0.01-0.01,0.02-0.03,0.03-0.04c0.01-0.01,0.02-0.03,0.03-0.04c0.02-0.02,0.03-0.05,0.05-0.07
	c0.03-0.05,0.05-0.1,0.07-0.15c0-0.01,0-0.02,0.01-0.02c0-0.01,0.01-0.02,0.01-0.03c0.01-0.03,0.02-0.06,0.03-0.09
	c0.01-0.05,0.02-0.1,0.02-0.15c0-0.01,0-0.02,0-0.02l0.01-2.29C144.96,281.88,144.94,281.97,144.91,282.06z"/>
<g>
	<polygon class="st77" points="144.2,282.85 144.2,285.13 134.6,290.71 134.6,288.43 	"/>
</g>
<g>
	<path class="st1" d="M144.19,280.71c1.02,0.59,1.03,1.54,0.02,2.13l-9.6,5.58c-1.01,0.59-2.67,0.59-3.69,0l-9.67-5.58
		c-1.02-0.59-1.02-1.54-0.01-2.13l9.6-5.58c1.01-0.59,2.66-0.59,3.68,0L144.19,280.71z"/>
</g>
<path class="st78" d="M134.6,288.43c-0.16,0.09-0.33,0.16-0.51,0.23c-0.06,0.02-0.13,0.04-0.2,0.06c-0.09,0.02-0.17,0.05-0.26,0.07
	c-0.1,0.02-0.21,0.04-0.32,0.05c-0.03,0-0.05,0.01-0.08,0.01c-0.15,0.02-0.29,0.02-0.44,0.02c-0.02,0-0.05,0-0.07,0
	c-0.15,0-0.29-0.01-0.43-0.02c-0.02,0-0.04,0-0.06-0.01c-0.14-0.02-0.28-0.04-0.42-0.07c-0.03-0.01-0.05-0.01-0.07-0.02
	c-0.12-0.03-0.25-0.07-0.36-0.11c-0.02-0.01-0.04-0.01-0.06-0.02c-0.14-0.05-0.27-0.12-0.4-0.19l-9.67-5.58
	c-0.51-0.3-0.77-0.68-0.77-1.07l-0.01,2.29c0,0.39,0.25,0.77,0.77,1.07l9.67,5.58c0.12,0.07,0.24,0.13,0.38,0.18
	c0.01,0,0.01,0,0.02,0.01c0.02,0.01,0.04,0.01,0.06,0.02c0.08,0.03,0.15,0.06,0.23,0.08c0.04,0.01,0.09,0.02,0.13,0.03
	c0.02,0.01,0.05,0.01,0.07,0.02c0.02,0.01,0.04,0.01,0.07,0.02c0.09,0.02,0.17,0.03,0.26,0.05c0.03,0,0.06,0.01,0.09,0.01
	c0.02,0,0.04,0.01,0.06,0.01c0.03,0,0.06,0.01,0.1,0.01c0.09,0.01,0.17,0.01,0.26,0.01c0.03,0,0.05,0,0.08,0c0.02,0,0.05,0,0.07,0
	c0.04,0,0.08,0,0.12,0c0.1,0,0.19-0.01,0.29-0.02c0.01,0,0.02,0,0.03,0c0.03,0,0.05-0.01,0.08-0.01c0.07-0.01,0.15-0.02,0.22-0.03
	c0.03-0.01,0.06-0.02,0.09-0.02c0.09-0.02,0.18-0.04,0.26-0.06c0.05-0.01,0.09-0.02,0.14-0.03c0.02-0.01,0.04-0.02,0.06-0.03
	c0.18-0.06,0.36-0.13,0.51-0.23L134.6,288.43z"/>
<path class="st76" d="M113.02,281.23c0,0.01,0,0.02-0.01,0.03c-0.03,0.08-0.07,0.16-0.12,0.24c-0.01,0.01-0.02,0.03-0.03,0.04
	c-0.06,0.08-0.13,0.16-0.21,0.23c-0.05,0.05-0.12,0.09-0.19,0.14c-0.05,0.04-0.1,0.08-0.16,0.11l-0.01,2.29
	c0.01-0.01,0.02-0.01,0.03-0.02c0.05-0.03,0.09-0.06,0.13-0.1c0.06-0.04,0.13-0.09,0.18-0.14c0.01,0,0.01-0.01,0.02-0.01
	c0.06-0.06,0.12-0.11,0.16-0.17c0.01-0.01,0.02-0.03,0.03-0.04c0.01-0.01,0.02-0.03,0.03-0.04c0.02-0.02,0.03-0.05,0.05-0.07
	c0.03-0.05,0.05-0.1,0.07-0.15c0-0.01,0-0.02,0.01-0.02c0-0.01,0.01-0.02,0.01-0.03c0.01-0.03,0.02-0.06,0.03-0.1
	c0.01-0.05,0.02-0.1,0.02-0.15c0-0.01,0-0.02,0-0.02l0.01-2.29C113.07,281.05,113.05,281.14,113.02,281.23z"/>
<g>
	<polygon class="st77" points="112.31,282.02 112.3,284.31 102.7,289.89 102.7,287.6 	"/>
</g>
<g>
	<path class="st1" d="M112.3,279.89c1.02,0.59,1.02,1.54,0.01,2.13l-9.6,5.58c-1.01,0.59-2.66,0.59-3.68,0l-9.66-5.58
		c-1.02-0.59-1.03-1.54-0.02-2.13l9.6-5.58c1.01-0.59,2.67-0.59,3.69,0L112.3,279.89z"/>
</g>
<path class="st78" d="M102.7,287.6c-0.16,0.09-0.33,0.16-0.51,0.23c-0.06,0.02-0.13,0.04-0.2,0.06c-0.09,0.02-0.17,0.05-0.26,0.06
	c-0.1,0.02-0.21,0.04-0.32,0.05c-0.03,0-0.05,0.01-0.08,0.01c-0.14,0.02-0.29,0.02-0.44,0.02c-0.02,0-0.05,0-0.07,0
	c-0.14,0-0.29-0.01-0.43-0.02c-0.02,0-0.04,0-0.06-0.01c-0.14-0.02-0.28-0.04-0.42-0.07c-0.02-0.01-0.05-0.01-0.07-0.02
	c-0.12-0.03-0.25-0.07-0.36-0.11c-0.02-0.01-0.04-0.01-0.06-0.02c-0.14-0.05-0.27-0.12-0.4-0.19l-9.66-5.58
	c-0.52-0.3-0.77-0.69-0.77-1.08l-0.01,2.29c0,0.39,0.26,0.78,0.77,1.08l9.66,5.58c0.12,0.07,0.24,0.13,0.38,0.18
	c0.01,0,0.01,0,0.02,0.01c0.02,0.01,0.04,0.01,0.06,0.02c0.08,0.03,0.15,0.06,0.23,0.08c0.04,0.01,0.09,0.02,0.13,0.03
	c0.02,0.01,0.05,0.01,0.07,0.02c0.02,0.01,0.05,0.01,0.07,0.02c0.08,0.02,0.17,0.03,0.26,0.04c0.03,0,0.06,0.01,0.09,0.01
	c0.02,0,0.04,0.01,0.06,0.01c0.03,0,0.06,0.01,0.1,0.01c0.08,0.01,0.17,0.01,0.26,0.01c0.03,0,0.05,0,0.08,0c0.02,0,0.05,0,0.07,0
	c0.04,0,0.08,0,0.12,0c0.1,0,0.19-0.01,0.29-0.02c0.01,0,0.02,0,0.03,0c0.03,0,0.05-0.01,0.08-0.01c0.07-0.01,0.15-0.02,0.22-0.03
	c0.03-0.01,0.06-0.02,0.09-0.02c0.09-0.02,0.17-0.04,0.26-0.06c0.05-0.01,0.09-0.02,0.14-0.03c0.02-0.01,0.04-0.02,0.06-0.03
	c0.18-0.06,0.36-0.13,0.51-0.23L102.7,287.6z"/>
<path class="st76" d="M129.78,290.61c0,0.09-0.02,0.18-0.04,0.27c0,0.01-0.01,0.02-0.01,0.03c-0.03,0.08-0.07,0.16-0.12,0.24
	c-0.01,0.01-0.02,0.03-0.03,0.04c-0.06,0.08-0.13,0.15-0.21,0.23c-0.05,0.05-0.12,0.09-0.18,0.13c-0.05,0.04-0.1,0.08-0.16,0.12
	l-0.01,2.29c0.01-0.01,0.02-0.01,0.03-0.02c0.05-0.03,0.09-0.07,0.13-0.1c0.06-0.04,0.13-0.09,0.18-0.13c0,0,0.01-0.01,0.02-0.01
	c0.06-0.06,0.11-0.11,0.16-0.17c0.01-0.01,0.02-0.03,0.03-0.04c0.01-0.01,0.02-0.03,0.03-0.04c0.02-0.02,0.03-0.05,0.05-0.07
	c0.03-0.05,0.05-0.1,0.07-0.15c0-0.01,0-0.02,0.01-0.02c0-0.01,0.01-0.02,0.01-0.03c0.01-0.03,0.02-0.06,0.03-0.1
	c0.01-0.05,0.02-0.1,0.02-0.15c0-0.01,0-0.02,0-0.02l0,0L129.78,290.61z"/>
<g>
	<polygon class="st77" points="129.02,291.67 129.01,293.96 119.41,299.54 119.42,297.25 	"/>
</g>
<g>
	<path class="st1" d="M129.01,289.53c1.02,0.59,1.03,1.55,0.01,2.14l-9.6,5.58c-1.01,0.59-2.66,0.59-3.68,0l-9.67-5.58
		c-1.02-0.59-1.03-1.54-0.01-2.13l9.6-5.58c1.01-0.59,2.66-0.59,3.68,0L129.01,289.53z"/>
</g>
<path class="st78" d="M119.42,297.25c-0.16,0.09-0.33,0.16-0.51,0.22c-0.06,0.02-0.13,0.04-0.2,0.06c-0.09,0.02-0.17,0.05-0.26,0.06
	c-0.11,0.02-0.21,0.04-0.32,0.05c-0.02,0-0.05,0.01-0.07,0.01c-0.15,0.02-0.29,0.02-0.44,0.02c-0.02,0-0.05,0-0.07,0
	c-0.15,0-0.29-0.01-0.43-0.02c-0.02,0-0.04,0-0.06-0.01c-0.14-0.02-0.28-0.04-0.42-0.07c-0.03-0.01-0.05-0.01-0.08-0.02
	c-0.13-0.03-0.25-0.07-0.36-0.11c-0.02-0.01-0.04-0.01-0.06-0.02c-0.14-0.05-0.27-0.12-0.4-0.19l-9.67-5.58
	c-0.51-0.3-0.77-0.68-0.77-1.07l-0.01,2.29c0,0.39,0.26,0.78,0.77,1.07l9.67,5.58c0.12,0.07,0.24,0.13,0.38,0.18
	c0.01,0,0.01,0,0.02,0.01c0.02,0.01,0.04,0.01,0.06,0.02c0.08,0.03,0.15,0.06,0.23,0.08c0.04,0.01,0.08,0.02,0.13,0.03
	c0.03,0.01,0.05,0.01,0.08,0.02c0.02,0.01,0.05,0.01,0.07,0.02c0.09,0.02,0.17,0.03,0.26,0.05c0.03,0,0.06,0.01,0.09,0.01
	c0.02,0,0.04,0.01,0.07,0.01c0.03,0,0.07,0.01,0.1,0.01c0.09,0.01,0.17,0.01,0.26,0.01c0.03,0,0.05,0,0.08,0c0.02,0,0.05,0,0.07,0
	c0.04,0,0.08,0,0.12,0c0.1,0,0.19-0.01,0.29-0.02c0.01,0,0.02,0,0.03,0c0.03,0,0.05-0.01,0.07-0.01c0.08-0.01,0.15-0.02,0.23-0.03
	c0.03-0.01,0.06-0.02,0.09-0.02c0.09-0.02,0.17-0.04,0.26-0.06c0.05-0.01,0.09-0.02,0.14-0.03c0.02-0.01,0.04-0.02,0.06-0.03
	c0.18-0.06,0.36-0.13,0.51-0.22L119.42,297.25z"/>
<path class="st79" d="M161.63,291.7c0,0.01,0,0.02-0.01,0.03c-0.03,0.08-0.07,0.16-0.12,0.24c-0.01,0.01-0.02,0.03-0.03,0.04
	c-0.06,0.08-0.13,0.15-0.21,0.23c-0.05,0.05-0.12,0.09-0.19,0.14c-0.05,0.04-0.1,0.08-0.16,0.11l-0.01,2.29
	c0.01-0.01,0.02-0.01,0.03-0.02c0.05-0.03,0.08-0.06,0.13-0.09c0.06-0.05,0.13-0.09,0.19-0.14c0.01,0,0.01-0.01,0.02-0.01
	c0.06-0.06,0.11-0.11,0.16-0.17c0.01-0.01,0.02-0.03,0.03-0.04c0.01-0.01,0.02-0.03,0.03-0.04c0.02-0.02,0.03-0.05,0.05-0.07
	c0.03-0.05,0.05-0.1,0.07-0.15c0-0.01,0-0.01,0.01-0.02c0-0.01,0.01-0.02,0.01-0.03c0.01-0.03,0.02-0.06,0.03-0.1
	c0.01-0.05,0.02-0.1,0.02-0.15c0-0.01,0-0.02,0-0.02l0.01-2.29C161.67,291.53,161.65,291.62,161.63,291.7z"/>
<g>
	<polygon class="st80" points="160.91,292.49 160.91,294.78 136.28,309.09 136.28,306.81 	"/>
</g>
<g>
	<path class="st4" d="M160.9,290.36c1.02,0.59,1.03,1.54,0.01,2.13l-24.63,14.31c-1.01,0.59-2.66,0.59-3.68,0l-9.67-5.58
		c-1.02-0.59-1.02-1.54-0.01-2.13l24.63-14.31c1.01-0.59,2.66-0.59,3.68,0L160.9,290.36z"/>
</g>
<path class="st79" d="M136.28,306.81c-0.16,0.09-0.33,0.16-0.51,0.22c-0.06,0.02-0.13,0.04-0.2,0.06c-0.09,0.02-0.17,0.05-0.26,0.07
	c-0.1,0.02-0.21,0.04-0.31,0.05c-0.03,0-0.05,0.01-0.08,0.01c-0.14,0.02-0.29,0.02-0.44,0.02c-0.02,0-0.05,0-0.07,0
	c-0.14,0-0.29-0.01-0.43-0.02c-0.02,0-0.04,0-0.07-0.01c-0.14-0.02-0.28-0.04-0.42-0.07c-0.02-0.01-0.05-0.01-0.07-0.02
	c-0.12-0.03-0.24-0.07-0.36-0.11c-0.02-0.01-0.04-0.01-0.07-0.02c-0.14-0.05-0.27-0.12-0.4-0.19l-9.67-5.58
	c-0.51-0.3-0.77-0.68-0.77-1.07l-0.01,2.29c0,0.39,0.25,0.78,0.77,1.07l9.67,5.58c0.12,0.07,0.24,0.13,0.37,0.18
	c0.01,0,0.01,0,0.02,0.01c0.02,0.01,0.04,0.01,0.06,0.02c0.08,0.03,0.15,0.06,0.23,0.08c0.04,0.01,0.09,0.02,0.13,0.03
	c0.02,0.01,0.05,0.01,0.07,0.02c0.02,0.01,0.04,0.01,0.07,0.02c0.08,0.02,0.17,0.03,0.26,0.04c0.03,0,0.06,0.01,0.1,0.01
	c0.02,0,0.04,0.01,0.07,0.01c0.03,0,0.06,0.01,0.09,0.01c0.09,0.01,0.17,0.01,0.26,0.01c0.03,0,0.06,0,0.08,0c0.02,0,0.05,0,0.07,0
	c0.04,0,0.08,0,0.11,0c0.1,0,0.19-0.01,0.29-0.02c0.01,0,0.02,0,0.03,0c0.03,0,0.05-0.01,0.08-0.01c0.07-0.01,0.15-0.02,0.22-0.03
	c0.03-0.01,0.06-0.02,0.09-0.02c0.09-0.02,0.18-0.04,0.26-0.07c0.05-0.01,0.09-0.02,0.14-0.03c0.02-0.01,0.04-0.02,0.06-0.03
	c0.18-0.06,0.36-0.13,0.51-0.22L136.28,306.81z"/>
</svg>
