<svg id="Слой_1" data-name="Слой 1" xmlns="http://www.w3.org/2000/svg" viewBox="0 0 564.08 258.04"><defs><style>.cls-1{fill:#fff;}.cls-2{fill:none;stroke:#fff;stroke-width:14.34px;}</style></defs><g id="Alg_Math" data-name="Alg Math"><path class="cls-1" d="M.24,162.31,35,84.53H50.57l35,77.78H69L39.58,92.75H45.8L16.35,162.31ZM16.8,144.75,21,132.64H62.24l4.33,12.11Z"/><path class="cls-1" d="M94.79,162.31V79.86H110v82.45Z"/><path class="cls-1" d="M154,159.53a32.29,32.29,0,0,1-15.33-3.61A27.45,27.45,0,0,1,128,145.86a30.54,30.54,0,0,1,0-30.22,27,27,0,0,1,10.72-10A32.45,32.45,0,0,1,154,102.08a29.16,29.16,0,0,1,13.39,3,21.62,21.62,0,0,1,9.39,9.39q3.45,6.39,3.45,16.28T176.79,147a21.89,21.89,0,0,1-9.39,9.44A28.72,28.72,0,0,1,154,159.53Zm2,25.11a61.77,61.77,0,0,1-16-2.11,35,35,0,0,1-13-6.22l6.44-11.23a29.87,29.87,0,0,0,9.78,5.17,37.82,37.82,0,0,0,11.89,1.94q9.55,0,14-4.33t4.44-13.11v-10l1.11-14-.55-14v-14h14.44V153q0,16.23-8.39,23.95T156,184.64Zm.45-37.67a19,19,0,0,0,9-2.05,15,15,0,0,0,6-5.73,17.52,17.52,0,0,0,0-16.88,14.19,14.19,0,0,0-6-5.61,21.35,21.35,0,0,0-17.83,0,14.16,14.16,0,0,0-6.11,5.61,17.52,17.52,0,0,0,0,16.88,15,15,0,0,0,6.11,5.73,18.74,18.74,0,0,0,8.84,2.08Z"/><path class="cls-1" d="M272.31,162.31V84.53h13L319,140.64h-6.8l33-56.11h13l.22,77.78H343.53l-.22-54.67h3l-27.44,46h-7.11l-28.11-46h3.55v54.67Z"/><path class="cls-1" d="M396.53,163.08a27.59,27.59,0,0,1-11.78-2.33,18.23,18.23,0,0,1-7.66-6.33,16.25,16.25,0,0,1-2.67-9.23,16.85,16.85,0,0,1,2.44-9.05,16.54,16.54,0,0,1,8-6.28q5.56-2.33,14.45-2.33h16.78V137H400.75q-6.78,0-9.16,2.17a7.08,7.08,0,0,0-2.39,5.5,6.74,6.74,0,0,0,2.83,5.67c1.89,1.4,4.5,2.11,7.83,2.11a17.3,17.3,0,0,0,8.84-2.23,12.51,12.51,0,0,0,5.5-6.55l2.44,8.22a15.71,15.71,0,0,1-7.05,8.28Q404.52,163.08,396.53,163.08Zm18.56-.77V150.42l-.89-2.56v-21q0-5.88-3.56-9.16t-11-3.28a31,31,0,0,0-9.55,1.5A24.69,24.69,0,0,0,382,120.2l-5.66-10.89a35.37,35.37,0,0,1,11.55-5.39,51.71,51.71,0,0,1,13.78-1.84q13.23,0,20.45,6.23t7.22,19.44v34.56Z"/><path class="cls-1" d="M440,115.42V103.53h40.22v11.89Zm30.67,47.66q-10.11,0-15.61-5.16t-5.5-15.28v-53h15.11v52.67a8.81,8.81,0,0,0,2.11,6.33,7.73,7.73,0,0,0,5.89,2.22,11.77,11.77,0,0,0,7.44-2.33l4.11,10.66a17.26,17.26,0,0,1-6.05,2.89,27.77,27.77,0,0,1-7.53,1Z"/><path class="cls-1" d="M531.08,102.08a28.4,28.4,0,0,1,12.72,2.78,20.28,20.28,0,0,1,8.83,8.56q3.23,5.77,3.23,14.77v34.12H540.75v-32q0-7.66-3.5-11.39c-2.34-2.48-5.61-3.72-9.84-3.72a17.1,17.1,0,0,0-8.27,1.94,13.24,13.24,0,0,0-5.56,5.72,20.74,20.74,0,0,0-1.94,9.56v29.89H496.41V79.86h15.23v39.22l-3.34-5a21.1,21.1,0,0,1,9.06-8.88A29,29,0,0,1,531.08,102.08Z"/></g><g id="Эллипс_1" data-name="Эллипс 1"><g id="Эллипс_1-2" data-name="Эллипс 1-2"><circle class="cls-2" cx="231.41" cy="133.75" r="29.4"/></g></g><g id="_Изображение" data-name=" Изображение"><path class="cls-1" d="M226.23,139.81,213.51,135v-3.47l12.72-4.81V130l-11.49,4.19v-1.87l11.49,4.2Z"/><path class="cls-1" d="M225.59,145.29l8.82-25.17h3.69l-8.82,25.17Z"/><path class="cls-1" d="M237.22,139.81v-3.28l11.49-4.2v1.87L237.22,130v-3.29l12.72,4.81V135Z"/></g></svg>